<svg width="1031" height="402" viewBox="0 0 1031 402" fill="none" xmlns="http://www.w3.org/2000/svg">
<path d="M534.13 274.79V278.87H528.37V296H523.21V278.87H517.51V274.79H534.13ZM547.182 296L542.592 287.99H541.422V296H536.292V274.79H545.052C546.732 274.79 548.152 275.08 549.312 275.66C550.472 276.24 551.342 277.04 551.922 278.06C552.502 279.06 552.792 280.21 552.792 281.51C552.792 283.05 552.362 284.36 551.502 285.44C550.662 286.52 549.432 287.26 547.812 287.66L552.852 296H547.182ZM541.422 284.48H544.602C545.622 284.48 546.372 284.26 546.852 283.82C547.332 283.36 547.572 282.69 547.572 281.81C547.572 280.97 547.322 280.31 546.822 279.83C546.342 279.35 545.602 279.11 544.602 279.11H541.422V284.48ZM573.695 274.79L566.345 288.95V296H561.185V288.95L553.835 274.79H559.715L563.795 283.43L567.875 274.79H573.695ZM586.803 292.07H593.643V296H581.673V274.79H586.803V292.07ZM601.129 274.79V296H595.999V274.79H601.129ZM608.631 274.79L613.821 290.75L619.011 274.79H624.501L617.121 296H610.491L603.141 274.79H608.631ZM631.598 278.87V283.31H638.768V287.18H631.598V291.89H639.668V296H626.468V274.79H639.668V278.87H631.598ZM661.727 292.13H653.777L652.457 296H647.057L654.827 274.94H660.737L668.507 296H663.047L661.727 292.13ZM660.407 288.23L657.767 280.43L655.097 288.23H660.407ZM675.631 288.56V296H670.501V274.79H678.811C681.331 274.79 683.251 275.42 684.571 276.68C685.891 277.92 686.551 279.6 686.551 281.72C686.551 283.04 686.251 284.22 685.651 285.26C685.071 286.28 684.201 287.09 683.041 287.69C681.881 288.27 680.471 288.56 678.811 288.56H675.631ZM678.241 284.45C680.301 284.45 681.331 283.54 681.331 281.72C681.331 279.86 680.301 278.93 678.241 278.93H675.631V284.45H678.241ZM694.206 288.56V296H689.076V274.79H697.386C699.906 274.79 701.826 275.42 703.146 276.68C704.466 277.92 705.126 279.6 705.126 281.72C705.126 283.04 704.826 284.22 704.226 285.26C703.646 286.28 702.776 287.09 701.616 287.69C700.456 288.27 699.046 288.56 697.386 288.56H694.206ZM696.816 284.45C698.876 284.45 699.906 283.54 699.906 281.72C699.906 279.86 698.876 278.93 696.816 278.93H694.206V284.45H696.816ZM547.515 319.79L542.445 341H536.085L532.695 326.81L529.275 341H522.915L517.845 319.79H523.425L526.155 335.15L529.875 319.79H535.485L539.205 335.15L541.965 319.79H547.515ZM555.338 319.79V341H550.208V319.79H555.338ZM574.12 319.79V323.87H568.36V341H563.2V323.87H557.5V319.79H574.12ZM594.613 319.79V341H589.453V332.15H581.413V341H576.283V319.79H581.413V328.01H589.453V319.79H594.613ZM609.124 319.79V332.03C609.124 333.43 609.434 334.5 610.054 335.24C610.694 335.98 611.614 336.35 612.814 336.35C614.014 336.35 614.924 335.98 615.544 335.24C616.184 334.5 616.504 333.43 616.504 332.03V319.79H621.634V332.03C621.634 334.03 621.244 335.72 620.464 337.1C619.684 338.46 618.614 339.49 617.254 340.19C615.914 340.87 614.394 341.21 612.694 341.21C610.994 341.21 609.494 340.87 608.194 340.19C606.894 339.51 605.874 338.48 605.134 337.1C604.394 335.72 604.024 334.03 604.024 332.03V319.79H609.124ZM640.302 335.03C640.302 336.15 640.012 337.18 639.432 338.12C638.872 339.06 638.032 339.81 636.912 340.37C635.812 340.93 634.472 341.21 632.892 341.21C630.512 341.21 628.552 340.63 627.012 339.47C625.472 338.31 624.632 336.69 624.492 334.61H629.952C630.032 335.41 630.312 336.04 630.792 336.5C631.292 336.96 631.922 337.19 632.682 337.19C633.342 337.19 633.862 337.01 634.242 336.65C634.622 336.29 634.812 335.81 634.812 335.21C634.812 334.67 634.632 334.22 634.272 333.86C633.932 333.5 633.502 333.21 632.982 332.99C632.462 332.75 631.742 332.47 630.822 332.15C629.482 331.69 628.382 331.25 627.522 330.83C626.682 330.39 625.952 329.75 625.332 328.91C624.732 328.05 624.432 326.94 624.432 325.58C624.432 324.32 624.752 323.23 625.392 322.31C626.032 321.39 626.912 320.69 628.032 320.21C629.172 319.71 630.472 319.46 631.932 319.46C634.292 319.46 636.162 320.02 637.542 321.14C638.942 322.26 639.732 323.8 639.912 325.76H634.362C634.262 325.06 634.002 324.51 633.582 324.11C633.182 323.69 632.632 323.48 631.932 323.48C631.332 323.48 630.842 323.64 630.462 323.96C630.102 324.28 629.922 324.75 629.922 325.37C629.922 325.87 630.082 326.3 630.402 326.66C630.742 327 631.162 327.28 631.662 327.5C632.162 327.72 632.882 328 633.822 328.34C635.182 328.8 636.292 329.26 637.152 329.72C638.012 330.16 638.752 330.81 639.372 331.67C639.992 332.53 640.302 333.65 640.302 335.03ZM648.268 323.87V328.31H655.438V332.18H648.268V336.89H656.338V341H643.138V319.79H656.338V323.87H648.268ZM670.141 341L665.551 332.99H664.381V341H659.251V319.79H668.011C669.691 319.79 671.111 320.08 672.271 320.66C673.431 321.24 674.301 322.04 674.881 323.06C675.461 324.06 675.751 325.21 675.751 326.51C675.751 328.05 675.321 329.36 674.461 330.44C673.621 331.52 672.391 332.26 670.771 332.66L675.811 341H670.141ZM664.381 329.48H667.561C668.581 329.48 669.331 329.26 669.811 328.82C670.291 328.36 670.531 327.69 670.531 326.81C670.531 325.97 670.281 325.31 669.781 324.83C669.301 324.35 668.561 324.11 667.561 324.11H664.381V329.48ZM693.564 335.03C693.564 336.15 693.274 337.18 692.694 338.12C692.134 339.06 691.294 339.81 690.174 340.37C689.074 340.93 687.734 341.21 686.154 341.21C683.774 341.21 681.814 340.63 680.274 339.47C678.734 338.31 677.894 336.69 677.754 334.61H683.214C683.294 335.41 683.574 336.04 684.054 336.5C684.554 336.96 685.184 337.19 685.944 337.19C686.604 337.19 687.124 337.01 687.504 336.65C687.884 336.29 688.074 335.81 688.074 335.21C688.074 334.67 687.894 334.22 687.534 333.86C687.194 333.5 686.764 333.21 686.244 332.99C685.724 332.75 685.004 332.47 684.084 332.15C682.744 331.69 681.644 331.25 680.784 330.83C679.944 330.39 679.214 329.75 678.594 328.91C677.994 328.05 677.694 326.94 677.694 325.58C677.694 324.32 678.014 323.23 678.654 322.31C679.294 321.39 680.174 320.69 681.294 320.21C682.434 319.71 683.734 319.46 685.194 319.46C687.554 319.46 689.424 320.02 690.804 321.14C692.204 322.26 692.994 323.8 693.174 325.76H687.624C687.524 325.06 687.264 324.51 686.844 324.11C686.444 323.69 685.894 323.48 685.194 323.48C684.594 323.48 684.104 323.64 683.724 323.96C683.364 324.28 683.184 324.75 683.184 325.37C683.184 325.87 683.344 326.3 683.664 326.66C684.004 327 684.424 327.28 684.924 327.5C685.424 327.72 686.144 328 687.084 328.34C688.444 328.8 689.554 329.26 690.414 329.72C691.274 330.16 692.014 330.81 692.634 331.67C693.254 332.53 693.564 333.65 693.564 335.03ZM703.42 318.74L702.79 333.41H698.44L697.81 318.74H703.42ZM703.3 335.87V341H697.96V335.87H703.3Z" fill="#16ABBC"/>
<circle cx="875" cy="65.9999" r="45" fill="#FFED49"/>
<path d="M892.964 38.7358H888.184L889.174 35.8045C889.441 35.0141 889.011 34.1592 888.213 33.8948C887.415 33.6295 886.552 34.0568 886.285 34.8468L884.971 38.7356H875.189C875.589 37.5533 879.032 27.3608 879.684 25.4291C882.291 27.0916 885.362 27.9944 888.623 27.9246L887.943 29.9398C887.676 30.7302 888.106 31.5852 888.904 31.8495C889.702 32.1142 890.565 31.6878 890.832 30.8976L891.992 27.4644C902.383 24.8344 905.896 12.8422 898.752 5.02725C897.97 4.17106 896.546 4.47021 896.178 5.56096L892.626 16.0766L887.378 17.1344L883.828 13.162L887.603 1.98754C887.765 1.50896 887.675 0.982289 887.362 0.583566C887.05 0.185246 886.556 -0.0318186 886.049 0.00378881C873.815 0.878685 868.445 14.7877 877.153 23.4128L874.346 31.7203C853.492 32.2186 856.201 40.2993 842.919 41.9795C842.543 40.1317 840.892 38.736 838.918 38.736H827.581C825.33 38.736 823.499 40.5496 823.499 42.7788V69.4526C823.499 71.6817 825.33 73.4953 827.581 73.4953H838.918C840.997 73.4953 842.715 71.9467 842.965 69.9535C849.955 70.4132 850.552 72.75 860.27 73.3917L859.653 75.2171C854.32 75.9589 849.855 79.4502 848.192 84.3723C846.634 88.9853 847.81 94.1969 851.262 97.9731C852.043 98.8273 853.467 98.5322 853.836 97.4394L857.389 86.9233L862.637 85.8658L866.186 89.8385L862.411 101.012C862.068 102.027 862.875 103.072 863.965 102.996C875.443 102.176 881.148 89.723 873.966 80.826L876.467 73.4219H884.453C887.497 73.4219 889.973 70.9692 889.973 67.9542C889.973 66.9371 889.691 65.9837 889.201 65.1672C892.438 63.9801 893.794 60.1741 892.038 57.2501C895.276 56.0632 896.631 52.2572 894.875 49.3329C896.98 48.5613 898.484 46.5532 898.484 44.2033C898.484 41.1887 896.008 38.7358 892.964 38.7358ZM883.907 3.41607L880.66 13.0305C880.487 13.5417 880.603 14.1053 880.963 14.5093L885.678 19.7866C886.039 20.1902 886.59 20.3722 887.123 20.2654L894.095 18.8602C894.629 18.7528 895.064 18.3716 895.236 17.8604L898.123 9.31342C899.559 11.9095 899.873 14.8881 898.933 17.6707C895.793 26.9652 882.035 27.2982 877.258 18.5601C873.906 12.4276 877.121 5.27892 883.907 3.41607ZM873.562 92.7774C872.436 96.1106 869.627 98.6172 866.107 99.5835L869.355 89.9693C869.527 89.4581 869.411 88.8944 869.051 88.4905L864.336 83.2127C863.968 82.8009 863.413 82.6285 862.891 82.7339L855.919 84.1389C855.386 84.2463 854.951 84.6275 854.778 85.1387L851.891 93.6859C847.076 84.975 855.763 75.4123 865.805 78.7401C871.972 80.7854 875.491 87.0654 873.562 92.7774ZM862.902 75.1101L863.446 73.4985C863.446 73.4985 864.721 73.4217 873.254 73.4217L871.558 78.4433C869.023 76.4517 865.957 75.33 862.902 75.1101ZM892.964 46.6529C890.789 46.6529 876.855 46.6529 874.66 46.6529C873.819 46.6529 873.137 47.3283 873.137 48.1619C873.137 48.9956 873.818 49.6709 874.66 49.6709H890.127C891.491 49.6709 892.6 50.7695 892.6 52.1202C892.6 53.4713 891.491 54.5703 890.127 54.5703C884.287 54.5703 880.473 54.5703 874.66 54.5703C873.819 54.5703 873.137 55.2456 873.137 56.0792C873.137 56.9127 873.818 57.5882 874.66 57.5882H887.29C888.654 57.5882 889.763 58.6868 889.763 60.0375C889.763 61.3886 888.654 62.4876 887.29 62.4876C885.987 62.4876 875.954 62.4876 874.66 62.4876C873.819 62.4876 873.137 63.1629 873.137 63.9966C873.137 64.8298 873.818 65.5056 874.66 65.5056H884.453C885.817 65.5056 886.926 66.6042 886.926 67.9548C886.926 69.3055 885.817 70.4047 884.453 70.4047C884.354 70.4047 865.946 70.4017 865.847 70.4093C865.762 70.4158 857.238 71.0442 850.138 68.2584C849.87 68.154 846.816 67.1574 842.999 66.9319V51.5782C842.999 50.7448 842.317 50.0692 841.476 50.0692C840.634 50.0692 839.952 50.7446 839.952 51.5782V69.4532C839.952 70.0183 839.488 70.4779 838.917 70.4779H827.581C827.011 70.4779 826.547 70.0183 826.547 69.4532V42.7784C826.547 42.2133 827.011 41.7536 827.581 41.7536H838.918C839.488 41.7536 839.953 42.2133 839.953 42.7784V46.9499C839.953 47.7833 840.635 48.4589 841.476 48.4589C842.318 48.4589 843 47.7835 843 46.9499V45.0136C857.35 43.3978 854.527 35.4903 873.316 34.7707L871.628 39.7658C871.473 40.2261 871.55 40.7322 871.837 41.1263C872.123 41.5202 872.583 41.7536 873.073 41.7536C883.15 41.7536 882.825 41.7536 892.964 41.7536C894.328 41.7536 895.437 42.8524 895.437 44.2033C895.437 45.5541 894.328 46.6529 892.964 46.6529Z" fill="#4B4B4B"/>
<path d="M822.182 149L819.734 144.728H819.11V149H816.374V137.688H821.046C821.942 137.688 822.699 137.843 823.318 138.152C823.936 138.461 824.4 138.888 824.71 139.432C825.019 139.965 825.174 140.579 825.174 141.272C825.174 142.093 824.944 142.792 824.486 143.368C824.038 143.944 823.382 144.339 822.518 144.552L825.206 149H822.182ZM819.11 142.856H820.806C821.35 142.856 821.75 142.739 822.006 142.504C822.262 142.259 822.39 141.901 822.39 141.432C822.39 140.984 822.256 140.632 821.99 140.376C821.734 140.12 821.339 139.992 820.806 139.992H819.11V142.856ZM835.026 144.296C835.026 144.52 834.999 144.765 834.946 145.032H828.754C828.786 145.704 828.956 146.189 829.266 146.488C829.575 146.776 829.97 146.92 830.45 146.92C830.855 146.92 831.191 146.819 831.458 146.616C831.724 146.413 831.9 146.152 831.986 145.832H834.882C834.764 146.461 834.508 147.027 834.114 147.528C833.719 148.019 833.218 148.408 832.61 148.696C832.002 148.973 831.324 149.112 830.578 149.112C829.703 149.112 828.924 148.931 828.242 148.568C827.57 148.195 827.042 147.661 826.658 146.968C826.274 146.275 826.082 145.464 826.082 144.536C826.082 143.597 826.268 142.787 826.642 142.104C827.026 141.411 827.559 140.883 828.242 140.52C828.924 140.147 829.703 139.96 830.578 139.96C831.463 139.96 832.242 140.141 832.914 140.504C833.586 140.867 834.103 141.379 834.466 142.04C834.839 142.691 835.026 143.443 835.026 144.296ZM832.258 143.88C832.268 143.293 832.108 142.856 831.778 142.568C831.458 142.269 831.058 142.12 830.578 142.12C830.076 142.12 829.66 142.269 829.33 142.568C828.999 142.867 828.812 143.304 828.77 143.88H832.258ZM840.036 139.992C841.23 139.992 842.116 140.451 842.692 141.368V140.072H845.412V153.256H842.692V147.56C842.073 148.584 841.188 149.096 840.036 149.096C839.289 149.096 838.606 148.909 837.988 148.536C837.38 148.152 836.894 147.619 836.532 146.936C836.169 146.253 835.988 145.469 835.988 144.584C835.988 143.699 836.169 142.909 836.532 142.216C836.894 141.512 837.385 140.968 838.004 140.584C838.622 140.189 839.3 139.992 840.036 139.992ZM840.724 142.376C840.19 142.376 839.732 142.568 839.348 142.952C838.964 143.325 838.772 143.869 838.772 144.584C838.772 145.288 838.958 145.821 839.332 146.184C839.716 146.536 840.18 146.712 840.724 146.712C841.257 146.712 841.716 146.525 842.1 146.152C842.494 145.768 842.692 145.229 842.692 144.536C842.692 143.843 842.494 143.309 842.1 142.936C841.716 142.563 841.257 142.376 840.724 142.376ZM856.176 140.072V149H853.424V147.384C853.168 147.907 852.784 148.323 852.272 148.632C851.77 148.941 851.184 149.096 850.512 149.096C849.488 149.096 848.672 148.755 848.064 148.072C847.466 147.389 847.168 146.451 847.168 145.256V140.072H849.888V144.92C849.888 145.528 850.042 146.003 850.352 146.344C850.672 146.675 851.098 146.84 851.632 146.84C852.186 146.84 852.624 146.664 852.944 146.312C853.264 145.96 853.424 145.459 853.424 144.808V140.072H856.176ZM866.541 144.296C866.541 144.52 866.515 144.765 866.461 145.032H860.269C860.301 145.704 860.472 146.189 860.781 146.488C861.091 146.776 861.485 146.92 861.965 146.92C862.371 146.92 862.707 146.819 862.973 146.616C863.24 146.413 863.416 146.152 863.501 145.832H866.397C866.28 146.461 866.024 147.027 865.629 147.528C865.235 148.019 864.733 148.408 864.125 148.696C863.517 148.973 862.84 149.112 862.093 149.112C861.219 149.112 860.44 148.931 859.757 148.568C859.085 148.195 858.557 147.661 858.173 146.968C857.789 146.275 857.597 145.464 857.597 144.536C857.597 143.597 857.784 142.787 858.157 142.104C858.541 141.411 859.075 140.883 859.757 140.52C860.44 140.147 861.219 139.96 862.093 139.96C862.979 139.96 863.757 140.141 864.429 140.504C865.101 140.867 865.619 141.379 865.981 142.04C866.355 142.691 866.541 143.443 866.541 144.296ZM863.773 143.88C863.784 143.293 863.624 142.856 863.293 142.568C862.973 142.269 862.573 142.12 862.093 142.12C861.592 142.12 861.176 142.269 860.845 142.568C860.515 142.867 860.328 143.304 860.285 143.88H863.773ZM871.215 139.96C872.346 139.96 873.247 140.243 873.919 140.808C874.602 141.373 875.029 142.12 875.199 143.048H872.639C872.565 142.685 872.394 142.403 872.127 142.2C871.871 141.987 871.546 141.88 871.151 141.88C870.842 141.88 870.607 141.949 870.447 142.088C870.287 142.216 870.207 142.403 870.207 142.648C870.207 142.925 870.351 143.133 870.639 143.272C870.938 143.411 871.402 143.549 872.031 143.688C872.714 143.848 873.274 144.013 873.711 144.184C874.149 144.344 874.527 144.611 874.847 144.984C875.167 145.357 875.327 145.859 875.327 146.488C875.327 147 875.189 147.453 874.911 147.848C874.634 148.243 874.234 148.552 873.711 148.776C873.189 149 872.57 149.112 871.855 149.112C870.65 149.112 869.685 148.845 868.959 148.312C868.234 147.779 867.791 147.016 867.631 146.024H870.271C870.314 146.408 870.474 146.701 870.751 146.904C871.039 147.107 871.407 147.208 871.855 147.208C872.165 147.208 872.399 147.139 872.559 147C872.719 146.851 872.799 146.659 872.799 146.424C872.799 146.115 872.65 145.896 872.351 145.768C872.063 145.629 871.589 145.485 870.927 145.336C870.266 145.197 869.722 145.048 869.295 144.888C868.869 144.728 868.501 144.472 868.191 144.12C867.882 143.757 867.727 143.267 867.727 142.648C867.727 141.848 868.031 141.203 868.639 140.712C869.247 140.211 870.106 139.96 871.215 139.96ZM881.898 146.648V149H880.666C879.621 149 878.805 148.744 878.218 148.232C877.642 147.709 877.354 146.851 877.354 145.656V142.376H876.154V140.072H877.354V137.88H880.09V140.072H881.882V142.376H880.09V145.704C880.09 146.056 880.16 146.301 880.298 146.44C880.448 146.579 880.693 146.648 881.034 146.648H881.898ZM894.015 137.688V139.864H889.375V142.344H892.959V144.424H889.375V149H886.639V137.688H894.015ZM895.165 137.56C895.165 137.144 895.314 136.803 895.613 136.536C895.911 136.259 896.306 136.12 896.797 136.12C897.287 136.12 897.682 136.259 897.981 136.536C898.279 136.803 898.429 137.144 898.429 137.56C898.429 137.965 898.279 138.307 897.981 138.584C897.682 138.851 897.287 138.984 896.797 138.984C896.306 138.984 895.911 138.851 895.613 138.584C895.314 138.307 895.165 137.965 895.165 137.56ZM898.157 140.072V149H895.421V140.072H898.157ZM905.63 149L903.806 146.456L902.318 149H899.31L902.27 144.344L899.198 140.072H902.27L904.078 142.584L905.566 140.072H908.574L905.55 144.616L908.702 149H905.63ZM918.213 144.296C918.213 144.52 918.186 144.765 918.133 145.032H911.941C911.973 145.704 912.144 146.189 912.453 146.488C912.762 146.776 913.157 146.92 913.637 146.92C914.042 146.92 914.378 146.819 914.645 146.616C914.912 146.413 915.088 146.152 915.173 145.832H918.069C917.952 146.461 917.696 147.027 917.301 147.528C916.906 148.019 916.405 148.408 915.797 148.696C915.189 148.973 914.512 149.112 913.765 149.112C912.89 149.112 912.112 148.931 911.429 148.568C910.757 148.195 910.229 147.661 909.845 146.968C909.461 146.275 909.269 145.464 909.269 144.536C909.269 143.597 909.456 142.787 909.829 142.104C910.213 141.411 910.746 140.883 911.429 140.52C912.112 140.147 912.89 139.96 913.765 139.96C914.65 139.96 915.429 140.141 916.101 140.504C916.773 140.867 917.29 141.379 917.653 142.04C918.026 142.691 918.213 143.443 918.213 144.296ZM915.445 143.88C915.456 143.293 915.296 142.856 914.965 142.568C914.645 142.269 914.245 142.12 913.765 142.12C913.264 142.12 912.848 142.269 912.517 142.568C912.186 142.867 912 143.304 911.957 143.88H915.445ZM922.887 139.96C924.018 139.96 924.919 140.243 925.591 140.808C926.274 141.373 926.701 142.12 926.871 143.048H924.311C924.237 142.685 924.066 142.403 923.799 142.2C923.543 141.987 923.218 141.88 922.823 141.88C922.514 141.88 922.279 141.949 922.119 142.088C921.959 142.216 921.879 142.403 921.879 142.648C921.879 142.925 922.023 143.133 922.311 143.272C922.61 143.411 923.074 143.549 923.703 143.688C924.386 143.848 924.946 144.013 925.383 144.184C925.821 144.344 926.199 144.611 926.519 144.984C926.839 145.357 926.999 145.859 926.999 146.488C926.999 147 926.861 147.453 926.583 147.848C926.306 148.243 925.906 148.552 925.383 148.776C924.861 149 924.242 149.112 923.527 149.112C922.322 149.112 921.357 148.845 920.631 148.312C919.906 147.779 919.463 147.016 919.303 146.024H921.943C921.986 146.408 922.146 146.701 922.423 146.904C922.711 147.107 923.079 147.208 923.527 147.208C923.837 147.208 924.071 147.139 924.231 147C924.391 146.851 924.471 146.659 924.471 146.424C924.471 146.115 924.322 145.896 924.023 145.768C923.735 145.629 923.261 145.485 922.599 145.336C921.938 145.197 921.394 145.048 920.967 144.888C920.541 144.728 920.173 144.472 919.863 144.12C919.554 143.757 919.399 143.267 919.399 142.648C919.399 141.848 919.703 141.203 920.311 140.712C920.919 140.211 921.778 139.96 922.887 139.96Z" fill="black"/>
<circle cx="947" cy="257" r="45" fill="#FFED49"/>
<path d="M945.456 257.47C961.049 257.47 973.736 244.659 973.736 228.912C973.736 213.166 961.049 200.354 945.456 200.354C929.862 200.354 917.175 213.166 917.175 228.912C917.175 244.659 929.862 257.47 945.456 257.47V257.47ZM945.456 204.378C958.852 204.378 969.752 215.384 969.752 228.912C969.752 242.44 958.852 253.447 945.456 253.447C932.059 253.447 921.16 242.441 921.16 228.912C921.16 215.384 932.059 204.378 945.456 204.378V204.378Z" fill="#4B4B4B"/>
<path d="M945.16 267.422C966.025 267.422 983 250.28 983 229.211C983 208.141 966.025 191 945.16 191C924.295 191 907.32 208.141 907.32 229.211C907.32 237.207 909.767 244.636 913.942 250.779L907.752 257.029L906.909 256.178C906.131 255.392 904.87 255.392 904.091 256.178L883.975 276.492C882.057 278.429 881 281.005 881 283.744C881 286.484 882.057 289.059 883.975 290.996C885.893 292.933 888.443 294 891.156 294C893.869 294 896.42 292.933 898.338 290.996L918.455 270.682C918.829 270.305 919.038 269.793 919.038 269.26C919.038 268.726 918.829 268.214 918.455 267.837L917.612 266.986L923.802 260.735C929.885 264.951 937.242 267.422 945.16 267.422V267.422ZM945.16 195.023C963.828 195.023 979.016 210.36 979.016 229.211C979.016 248.062 963.828 263.398 945.16 263.398C926.493 263.398 911.305 248.062 911.305 229.211C911.305 210.36 926.493 195.023 945.16 195.023V195.023ZM895.521 288.151C894.355 289.328 892.805 289.977 891.156 289.977C889.507 289.977 887.958 289.328 886.792 288.151C884.385 285.721 884.385 281.767 886.792 279.336L905.5 260.445L906.343 261.295C906.343 261.296 906.344 261.296 906.344 261.297L914.229 269.26L895.521 288.151ZM914.795 264.14L910.57 259.874L916.388 253.999C917.683 255.53 919.097 256.957 920.613 258.265L914.795 264.14Z" fill="#4B4B4B"/>
<path d="M938.636 223.624C939.736 223.624 940.628 222.724 940.628 221.613C940.628 220.228 941.215 218.904 942.236 217.98C943.273 217.042 944.614 216.612 946.014 216.769C948.225 217.016 950.008 218.816 950.253 221.049C950.467 223.018 949.508 224.912 947.807 225.872C945.128 227.385 943.464 230.182 943.464 233.172V236.043C943.464 237.154 944.356 238.054 945.456 238.054C946.555 238.054 947.448 237.154 947.448 236.043V233.172C947.448 231.637 948.331 230.186 949.752 229.384C952.853 227.632 954.604 224.187 954.213 220.608C953.765 216.517 950.501 213.222 946.451 212.77C943.949 212.491 941.442 213.297 939.578 214.983C937.714 216.669 936.644 219.085 936.644 221.613C936.644 222.724 937.535 223.624 938.636 223.624Z" fill="#4B4B4B"/>
<path d="M945.455 241.875C944.931 241.875 944.418 242.09 944.047 242.464C943.677 242.838 943.463 243.357 943.463 243.886C943.463 244.417 943.676 244.935 944.047 245.309C944.418 245.684 944.931 245.898 945.455 245.898C945.98 245.898 946.493 245.684 946.864 245.309C947.234 244.935 947.447 244.415 947.447 243.886C947.447 243.357 947.235 242.838 946.864 242.464C946.493 242.09 945.98 241.875 945.455 241.875Z" fill="#4B4B4B"/>
<path d="M892.562 329.688V331.864H887.922V334.344H891.506V336.424H887.922V341H885.186V329.688H892.562ZM893.711 329.56C893.711 329.144 893.861 328.803 894.159 328.536C894.458 328.259 894.853 328.12 895.343 328.12C895.834 328.12 896.229 328.259 896.527 328.536C896.826 328.803 896.975 329.144 896.975 329.56C896.975 329.965 896.826 330.307 896.527 330.584C896.229 330.851 895.834 330.984 895.343 330.984C894.853 330.984 894.458 330.851 894.159 330.584C893.861 330.307 893.711 329.965 893.711 329.56ZM896.703 332.072V341H893.967V332.072H896.703ZM904.256 331.976C905.28 331.976 906.091 332.317 906.688 333C907.296 333.683 907.6 334.621 907.6 335.816V341H904.864V336.136C904.864 335.539 904.704 335.075 904.384 334.744C904.075 334.403 903.659 334.232 903.136 334.232C902.582 334.232 902.139 334.408 901.808 334.76C901.488 335.112 901.328 335.613 901.328 336.264V341H898.592V332.072H901.328V333.704C901.584 333.171 901.963 332.749 902.464 332.44C902.976 332.131 903.574 331.976 904.256 331.976ZM912.797 331.96C913.48 331.96 914.066 332.115 914.557 332.424C915.048 332.733 915.405 333.155 915.629 333.688V329.16H918.365V341H915.629V339.384C915.405 339.917 915.048 340.339 914.557 340.648C914.066 340.957 913.48 341.112 912.797 341.112C912.061 341.112 911.4 340.931 910.813 340.568C910.237 340.195 909.778 339.661 909.437 338.968C909.106 338.275 908.941 337.464 908.941 336.536C908.941 335.597 909.106 334.787 909.437 334.104C909.778 333.411 910.237 332.883 910.813 332.52C911.4 332.147 912.061 331.96 912.797 331.96ZM913.677 334.36C913.09 334.36 912.616 334.552 912.253 334.936C911.901 335.32 911.725 335.853 911.725 336.536C911.725 337.219 911.901 337.752 912.253 338.136C912.616 338.52 913.09 338.712 913.677 338.712C914.253 338.712 914.722 338.515 915.085 338.12C915.458 337.725 915.645 337.197 915.645 336.536C915.645 335.864 915.458 335.336 915.085 334.952C914.722 334.557 914.253 334.36 913.677 334.36ZM926.188 337.032V341H923.452V329.688H927.884C929.228 329.688 930.252 330.024 930.956 330.696C931.66 331.357 932.012 332.253 932.012 333.384C932.012 334.088 931.852 334.717 931.532 335.272C931.222 335.816 930.758 336.248 930.14 336.568C929.521 336.877 928.769 337.032 927.884 337.032H926.188ZM927.58 334.84C928.678 334.84 929.228 334.355 929.228 333.384C929.228 332.392 928.678 331.896 927.58 331.896H926.188V334.84H927.58ZM936.094 333.752C936.435 333.208 936.873 332.776 937.406 332.456C937.95 332.136 938.537 331.976 939.166 331.976V334.904H938.382C937.657 334.904 937.091 335.059 936.686 335.368C936.291 335.677 936.094 336.2 936.094 336.936V341H933.358V332.072H936.094V333.752ZM944.487 331.96C945.373 331.96 946.162 332.147 946.855 332.52C947.559 332.883 948.109 333.411 948.503 334.104C948.909 334.797 949.111 335.608 949.111 336.536C949.111 337.464 948.909 338.275 948.503 338.968C948.109 339.661 947.559 340.195 946.855 340.568C946.162 340.931 945.373 341.112 944.487 341.112C943.602 341.112 942.807 340.931 942.103 340.568C941.399 340.195 940.845 339.661 940.439 338.968C940.045 338.275 939.847 337.464 939.847 336.536C939.847 335.608 940.045 334.797 940.439 334.104C940.845 333.411 941.399 332.883 942.103 332.52C942.807 332.147 943.602 331.96 944.487 331.96ZM944.487 334.328C943.965 334.328 943.522 334.52 943.159 334.904C942.807 335.277 942.631 335.821 942.631 336.536C942.631 337.251 942.807 337.795 943.159 338.168C943.522 338.541 943.965 338.728 944.487 338.728C945.01 338.728 945.447 338.541 945.799 338.168C946.151 337.795 946.327 337.251 946.327 336.536C946.327 335.821 946.151 335.277 945.799 334.904C945.447 334.52 945.01 334.328 944.487 334.328ZM956.098 331.96C956.834 331.96 957.49 332.147 958.066 332.52C958.653 332.883 959.111 333.411 959.442 334.104C959.783 334.787 959.954 335.597 959.954 336.536C959.954 337.464 959.783 338.275 959.442 338.968C959.111 339.661 958.653 340.195 958.066 340.568C957.49 340.931 956.834 341.112 956.098 341.112C955.415 341.112 954.829 340.957 954.338 340.648C953.847 340.339 953.49 339.917 953.266 339.384V341H950.53V329.16H953.266V333.688C953.49 333.155 953.847 332.733 954.338 332.424C954.829 332.115 955.415 331.96 956.098 331.96ZM955.218 334.36C954.642 334.36 954.167 334.557 953.794 334.952C953.431 335.336 953.25 335.864 953.25 336.536C953.25 337.197 953.431 337.725 953.794 338.12C954.167 338.515 954.642 338.712 955.218 338.712C955.805 338.712 956.274 338.52 956.626 338.136C956.989 337.752 957.17 337.219 957.17 336.536C957.17 335.853 956.989 335.32 956.626 334.936C956.274 334.552 955.805 334.36 955.218 334.36ZM964.11 329.16V341H961.374V329.16H964.11ZM974.479 336.296C974.479 336.52 974.452 336.765 974.399 337.032H968.207C968.239 337.704 968.409 338.189 968.719 338.488C969.028 338.776 969.423 338.92 969.903 338.92C970.308 338.92 970.644 338.819 970.911 338.616C971.177 338.413 971.353 338.152 971.439 337.832H974.335C974.217 338.461 973.961 339.027 973.567 339.528C973.172 340.019 972.671 340.408 972.063 340.696C971.455 340.973 970.777 341.112 970.031 341.112C969.156 341.112 968.377 340.931 967.695 340.568C967.023 340.195 966.495 339.661 966.111 338.968C965.727 338.275 965.535 337.464 965.535 336.536C965.535 335.597 965.721 334.787 966.095 334.104C966.479 333.411 967.012 332.883 967.695 332.52C968.377 332.147 969.156 331.96 970.031 331.96C970.916 331.96 971.695 332.141 972.367 332.504C973.039 332.867 973.556 333.379 973.919 334.04C974.292 334.691 974.479 335.443 974.479 336.296ZM971.711 335.88C971.721 335.293 971.561 334.856 971.231 334.568C970.911 334.269 970.511 334.12 970.031 334.12C969.529 334.12 969.113 334.269 968.783 334.568C968.452 334.867 968.265 335.304 968.223 335.88H971.711ZM987.473 331.976C988.572 331.976 989.436 332.317 990.065 333C990.694 333.672 991.009 334.611 991.009 335.816V341H988.289V336.136C988.289 335.571 988.134 335.133 987.825 334.824C987.526 334.504 987.116 334.344 986.593 334.344C986.049 334.344 985.617 334.515 985.297 334.856C984.988 335.187 984.833 335.656 984.833 336.264V341H982.097V336.136C982.097 335.571 981.948 335.133 981.649 334.824C981.35 334.504 980.94 334.344 980.417 334.344C979.873 334.344 979.441 334.509 979.121 334.84C978.801 335.171 978.641 335.645 978.641 336.264V341H975.905V332.072H978.641V333.592C978.876 333.091 979.233 332.696 979.713 332.408C980.204 332.12 980.774 331.976 981.425 331.976C982.108 331.976 982.71 332.136 983.233 332.456C983.756 332.765 984.15 333.213 984.417 333.8C984.726 333.245 985.148 332.803 985.681 332.472C986.225 332.141 986.822 331.976 987.473 331.976ZM996.075 331.96C997.205 331.96 998.107 332.243 998.779 332.808C999.461 333.373 999.888 334.12 1000.06 335.048H997.499C997.424 334.685 997.253 334.403 996.987 334.2C996.731 333.987 996.405 333.88 996.011 333.88C995.701 333.88 995.467 333.949 995.307 334.088C995.147 334.216 995.067 334.403 995.067 334.648C995.067 334.925 995.211 335.133 995.499 335.272C995.797 335.411 996.261 335.549 996.891 335.688C997.573 335.848 998.133 336.013 998.571 336.184C999.008 336.344 999.387 336.611 999.707 336.984C1000.03 337.357 1000.19 337.859 1000.19 338.488C1000.19 339 1000.05 339.453 999.771 339.848C999.493 340.243 999.093 340.552 998.571 340.776C998.048 341 997.429 341.112 996.715 341.112C995.509 341.112 994.544 340.845 993.819 340.312C993.093 339.779 992.651 339.016 992.491 338.024H995.131C995.173 338.408 995.333 338.701 995.611 338.904C995.899 339.107 996.267 339.208 996.715 339.208C997.024 339.208 997.259 339.139 997.419 339C997.579 338.851 997.659 338.659 997.659 338.424C997.659 338.115 997.509 337.896 997.211 337.768C996.923 337.629 996.448 337.485 995.787 337.336C995.125 337.197 994.581 337.048 994.155 336.888C993.728 336.728 993.36 336.472 993.051 336.12C992.741 335.757 992.587 335.267 992.587 334.648C992.587 333.848 992.891 333.203 993.499 332.712C994.107 332.211 994.965 331.96 996.075 331.96Z" fill="black"/>
<circle cx="352.999" cy="240" r="45" fill="#FFED49"/>
<path d="M317.14 225.615C316.019 225.615 315.109 226.514 315.109 227.626C315.109 228.737 316.019 229.638 317.14 229.638C318.261 229.638 319.171 228.737 319.171 227.626C319.171 226.514 318.261 225.615 317.14 225.615Z" fill="#4B4B4B"/>
<path d="M379.906 186.744H375.378L380.152 182.017L380.152 182.017L380.152 182.017L383.023 179.171C384.942 177.273 385.999 174.747 385.999 172.059C385.999 169.371 384.942 166.845 383.024 164.948C381.106 163.047 378.556 162 375.843 162C373.131 162 370.58 163.047 368.663 164.947L365.79 167.791C365.789 167.791 365.789 167.792 365.789 167.792L346.652 186.744H288.094C284.734 186.744 282 189.452 282 192.78V258.965C282 262.293 284.734 265 288.094 265H379.906C383.266 265 386 262.293 386 258.965V192.78C386 189.452 383.266 186.744 379.906 186.744ZM371.536 167.792C372.687 166.651 374.216 166.023 375.843 166.023C377.47 166.023 379 166.651 380.152 167.793C381.303 168.932 381.937 170.447 381.937 172.059C381.937 173.671 381.303 175.186 380.151 176.326L378.715 177.749L374.428 173.503C374.421 173.496 374.415 173.488 374.408 173.481L370.098 169.215L371.536 167.792ZM367.225 172.06L375.843 180.595L346.176 209.974C344.836 205.952 341.622 202.768 337.56 201.441L367.225 172.06ZM331.901 201.357C331.848 201.409 331.799 201.464 331.752 201.522C331.738 201.539 331.726 201.557 331.713 201.574C331.681 201.616 331.65 201.659 331.622 201.704C331.609 201.723 331.597 201.743 331.585 201.763C331.558 201.81 331.532 201.858 331.508 201.907C331.5 201.924 331.49 201.942 331.482 201.96C331.455 202.021 331.43 202.084 331.408 202.148C331.407 202.153 331.404 202.158 331.402 202.163L331.4 202.171C331.398 202.177 331.396 202.183 331.394 202.189L325.656 219.836C325.418 220.569 325.622 221.372 326.183 221.905C326.568 222.27 327.074 222.465 327.59 222.465C327.825 222.465 328.063 222.424 328.292 222.34L345.527 216.046C345.538 216.042 345.548 216.036 345.558 216.033C345.603 216.015 345.646 215.997 345.689 215.976C345.71 215.967 345.732 215.957 345.752 215.946C345.795 215.925 345.835 215.901 345.876 215.877C345.896 215.865 345.916 215.854 345.935 215.841C345.977 215.814 346.016 215.786 346.055 215.756C346.072 215.743 346.089 215.732 346.105 215.719C346.159 215.676 346.21 215.631 346.259 215.583C346.259 215.582 346.26 215.581 346.261 215.581L363.191 198.815H373.813V252.326H311.047V198.815H334.467L331.901 201.357ZM334.78 204.901C338.863 205.523 342.091 208.741 342.692 212.793L330.802 217.135L334.78 204.901ZM381.937 258.965C381.937 260.074 381.026 260.977 379.906 260.977H288.094C286.974 260.977 286.062 260.074 286.062 258.965V192.78C286.062 191.67 286.974 190.768 288.094 190.768H342.59L338.528 194.791H309.016C307.894 194.791 306.984 195.692 306.984 196.803V254.338C306.984 255.449 307.894 256.35 309.016 256.35H375.843C376.965 256.35 377.875 255.449 377.875 254.338V196.803C377.875 195.692 376.965 194.791 375.843 194.791H367.253L371.316 190.768H379.906C381.026 190.768 381.937 191.67 381.937 192.78V258.965V258.965Z" fill="#4B4B4B"/>
<path d="M300.89 198.815H292.765C291.643 198.815 290.734 199.715 290.734 200.826C290.734 201.937 291.643 202.838 292.765 202.838H300.89C302.012 202.838 302.921 201.937 302.921 200.826C302.921 199.715 302.012 198.815 300.89 198.815Z" fill="#4B4B4B"/>
<path d="M300.89 206.862H292.765C291.643 206.862 290.734 207.762 290.734 208.873C290.734 209.984 291.643 210.885 292.765 210.885H300.89C302.012 210.885 302.921 209.984 302.921 208.873C302.921 207.762 302.012 206.862 300.89 206.862Z" fill="#4B4B4B"/>
<path d="M300.89 239.652H292.765C291.643 239.652 290.734 240.553 290.734 241.664C290.734 242.775 291.643 243.676 292.765 243.676H300.89C302.012 243.676 302.921 242.775 302.921 241.664C302.921 240.553 302.012 239.652 300.89 239.652Z" fill="#4B4B4B"/>
<path d="M300.89 247.699H292.765C291.643 247.699 290.734 248.6 290.734 249.711C290.734 250.822 291.643 251.723 292.765 251.723H300.89C302.012 251.723 302.921 250.822 302.921 249.711C302.921 248.6 302.012 247.699 300.89 247.699Z" fill="#4B4B4B"/>
<path d="M296.827 219.535C293.467 219.535 290.734 222.243 290.734 225.571C290.734 228.898 293.467 231.606 296.827 231.606C300.187 231.606 302.921 228.898 302.921 225.571C302.921 222.243 300.187 219.535 296.827 219.535ZM296.827 227.582C295.707 227.582 294.796 226.68 294.796 225.571C294.796 224.461 295.707 223.559 296.827 223.559C297.947 223.559 298.859 224.461 298.859 225.571C298.859 226.68 297.947 227.582 296.827 227.582Z" fill="#4B4B4B"/>
<path d="M369.218 230.273C368.462 229.452 367.177 229.393 366.349 230.142C363.434 232.774 359.203 232.774 356.289 230.142C351.826 226.11 345.828 226.111 341.364 230.142C338.45 232.774 334.829 232.774 331.913 230.141C330.427 228.8 328.77 227.89 326.988 227.437C325.901 227.16 324.795 227.808 324.516 228.884C324.237 229.961 324.892 231.057 325.978 231.333C327.11 231.621 328.187 232.221 329.177 233.114C331.409 235.13 334.024 236.138 336.64 236.138C339.255 236.138 341.871 235.13 344.102 233.115C347.017 230.482 350.638 230.482 353.552 233.115C355.712 235.065 358.47 236.14 361.319 236.14C364.168 236.14 366.926 235.065 369.086 233.115C369.915 232.366 369.974 231.094 369.218 230.273Z" fill="#4B4B4B"/>
<path d="M321.43 313.816C321.43 314.413 321.276 314.963 320.966 315.464C320.668 315.965 320.22 316.365 319.622 316.664C319.036 316.963 318.321 317.112 317.478 317.112C316.209 317.112 315.164 316.803 314.342 316.184C313.521 315.565 313.073 314.701 312.998 313.592H315.91C315.953 314.019 316.102 314.355 316.358 314.6C316.625 314.845 316.961 314.968 317.366 314.968C317.718 314.968 317.996 314.872 318.198 314.68C318.401 314.488 318.502 314.232 318.502 313.912C318.502 313.624 318.406 313.384 318.214 313.192C318.033 313 317.804 312.845 317.526 312.728C317.249 312.6 316.865 312.451 316.374 312.28C315.66 312.035 315.073 311.8 314.614 311.576C314.166 311.341 313.777 311 313.446 310.552C313.126 310.093 312.966 309.501 312.966 308.776C312.966 308.104 313.137 307.523 313.478 307.032C313.82 306.541 314.289 306.168 314.886 305.912C315.494 305.645 316.188 305.512 316.966 305.512C318.225 305.512 319.222 305.811 319.958 306.408C320.705 307.005 321.126 307.827 321.222 308.872H318.262C318.209 308.499 318.07 308.205 317.846 307.992C317.633 307.768 317.34 307.656 316.966 307.656C316.646 307.656 316.385 307.741 316.182 307.912C315.99 308.083 315.894 308.333 315.894 308.664C315.894 308.931 315.98 309.16 316.15 309.352C316.332 309.533 316.556 309.683 316.822 309.8C317.089 309.917 317.473 310.067 317.974 310.248C318.7 310.493 319.292 310.739 319.75 310.984C320.209 311.219 320.604 311.565 320.934 312.024C321.265 312.483 321.43 313.08 321.43 313.816ZM327.999 314.648V317H326.767C325.722 317 324.906 316.744 324.319 316.232C323.743 315.709 323.455 314.851 323.455 313.656V310.376H322.255V308.072H323.455V305.88H326.191V308.072H327.983V310.376H326.191V313.704C326.191 314.056 326.26 314.301 326.399 314.44C326.548 314.579 326.794 314.648 327.135 314.648H327.999ZM331.601 308.072L333.745 313.544L335.745 308.072H338.769L333.201 321.256H330.193L332.289 316.664L328.545 308.072H331.601ZM342.413 305.16V317H339.677V305.16H342.413ZM344.046 305.56C344.046 305.144 344.196 304.803 344.494 304.536C344.793 304.259 345.188 304.12 345.678 304.12C346.169 304.12 346.564 304.259 346.862 304.536C347.161 304.803 347.31 305.144 347.31 305.56C347.31 305.965 347.161 306.307 346.862 306.584C346.564 306.851 346.169 306.984 345.678 306.984C345.188 306.984 344.793 306.851 344.494 306.584C344.196 306.307 344.046 305.965 344.046 305.56ZM347.038 308.072V317H344.302V308.072H347.038ZM354.591 307.976C355.615 307.976 356.426 308.317 357.023 309C357.631 309.683 357.935 310.621 357.935 311.816V317H355.199V312.136C355.199 311.539 355.039 311.075 354.719 310.744C354.41 310.403 353.994 310.232 353.471 310.232C352.917 310.232 352.474 310.408 352.143 310.76C351.823 311.112 351.663 311.613 351.663 312.264V317H348.927V308.072H351.663V309.704C351.919 309.171 352.298 308.749 352.799 308.44C353.311 308.131 353.909 307.976 354.591 307.976ZM363.132 307.96C363.815 307.96 364.401 308.115 364.892 308.424C365.383 308.733 365.745 309.155 365.98 309.688V308.072H368.7V316.952C368.7 317.784 368.54 318.531 368.22 319.192C367.9 319.864 367.409 320.397 366.748 320.792C366.087 321.187 365.265 321.384 364.284 321.384C362.94 321.384 361.863 321.064 361.052 320.424C360.252 319.795 359.772 318.936 359.612 317.848H362.316C362.401 318.211 362.593 318.493 362.892 318.696C363.201 318.899 363.601 319 364.092 319C364.657 319 365.111 318.835 365.452 318.504C365.804 318.184 365.98 317.667 365.98 316.952V315.384C365.745 315.917 365.383 316.339 364.892 316.648C364.401 316.957 363.815 317.112 363.132 317.112C362.396 317.112 361.735 316.931 361.148 316.568C360.572 316.195 360.113 315.661 359.772 314.968C359.441 314.275 359.276 313.464 359.276 312.536C359.276 311.597 359.441 310.787 359.772 310.104C360.113 309.411 360.572 308.883 361.148 308.52C361.735 308.147 362.396 307.96 363.132 307.96ZM364.012 310.36C363.425 310.36 362.951 310.552 362.588 310.936C362.236 311.32 362.06 311.853 362.06 312.536C362.06 313.219 362.236 313.752 362.588 314.136C362.951 314.52 363.425 314.712 364.012 314.712C364.588 314.712 365.057 314.515 365.42 314.12C365.793 313.725 365.98 313.197 365.98 312.536C365.98 311.864 365.793 311.336 365.42 310.952C365.057 310.557 364.588 310.36 364.012 310.36Z" fill="black"/>
<circle cx="642.5" cy="200.5" r="62.5" fill="#FFED49"/>
<path d="M691.774 138.387H678.484V145.032H691.774V138.387Z" fill="#4B4B4B"/>
<path d="M691.774 238.065H678.484V244.71H691.774V238.065Z" fill="#4B4B4B"/>
<path d="M711.71 164.968H658.548V218.129H711.71V164.968ZM705.065 211.484H665.194V171.613H705.065V211.484Z" fill="#4B4B4B"/>
<path d="M705.065 138.387H698.419V145.032H705.065V138.387Z" fill="#4B4B4B"/>
<path d="M671.839 138.387H665.194V145.032H671.839V138.387Z" fill="#4B4B4B"/>
<path d="M708.387 125.097H661.871C652.711 125.097 645.258 132.549 645.258 141.71V187.82C644.135 187.571 643.082 187.322 642.647 187.179L608.71 175.862V168.978C617 163.559 622.94 154.87 624.731 144.753C632.589 143.444 638.613 136.643 638.613 128.419V101.839C638.613 74.3576 616.255 52 588.774 52C561.293 52 538.935 74.3576 538.935 101.839V128.419C538.935 136.603 544.896 143.381 552.817 144.743C554.601 154.864 560.546 163.556 568.839 168.978V175.862L534.902 187.179C525.393 190.346 519 199.214 519 209.238V238.065H645.258V241.387C645.258 250.547 652.711 258 661.871 258H708.387C717.547 258 725 250.547 725 241.387V141.71C725 132.549 717.547 125.097 708.387 125.097ZM661.871 131.742H708.387C713.883 131.742 718.355 136.214 718.355 141.71V151.677H651.903V141.71C651.903 136.214 656.375 131.742 661.871 131.742ZM611.461 183.784L606.65 205.44L593.698 194.645L606.288 182.056L611.461 183.784ZM588.774 199.197L592.097 201.965V231.419H585.452V201.965L588.774 199.197ZM625.323 137.776V121.774C625.323 120.817 625.196 119.89 625.04 118.977C629.044 120.269 631.968 123.99 631.968 128.419C631.968 132.745 629.18 136.4 625.323 137.776ZM545.581 128.419C545.581 124.093 548.368 120.439 552.226 119.063V137.772C548.368 136.4 545.581 132.745 545.581 128.419ZM552.226 110.976V112.142C549.757 112.647 547.521 113.744 545.581 115.212V101.839C545.581 78.0225 564.958 58.6452 588.774 58.6452C612.59 58.6452 631.968 78.0225 631.968 101.839V115.215C629.183 113.106 625.755 111.806 622 111.806V111.909C618.97 107.839 614.162 105.161 608.71 105.161H589.881C587.738 105.161 585.614 104.454 583.9 103.168L577.477 98.35C574.763 96.3166 571.4 95.1935 568.008 95.1935C559.306 95.1935 552.226 102.274 552.226 110.976ZM558.871 138.387V110.976C558.871 105.935 562.968 101.839 568.008 101.839C569.975 101.839 571.922 102.487 573.49 103.666L579.913 108.484C582.767 110.627 586.309 111.806 589.881 111.806H608.71C614.205 111.806 618.677 116.279 618.677 121.774V138.387C618.677 154.877 605.264 168.29 588.774 168.29C572.284 168.29 558.871 154.877 558.871 138.387ZM588.774 174.935C593.466 174.935 597.938 174.015 602.065 172.397V176.883L588.774 190.173L575.484 176.883V172.397C579.611 174.015 584.083 174.935 588.774 174.935ZM571.264 182.059L583.853 194.648L570.902 205.443L566.091 183.787L571.264 182.059ZM525.645 209.238C525.645 202.078 530.21 195.741 537.005 193.479L559.748 185.897L566.779 217.524L578.806 207.503V231.419H552.226V208.161H545.581V231.419H525.645V209.238ZM631.968 231.419V208.161H625.323V231.419H598.742V207.503L610.77 217.528L617.8 185.9L640.55 193.485C641.962 193.954 645.59 194.692 646.298 194.834L646.647 194.904L651.903 194.818V158.323H718.355V224.774H651.903V201.516H645.258V231.419H631.968ZM708.387 251.355H661.871C656.375 251.355 651.903 246.883 651.903 241.387V231.419H718.355V241.387C718.355 246.883 713.883 251.355 708.387 251.355Z" fill="#4B4B4B"/>
<path d="M572.161 128.419C573.996 128.419 575.484 126.932 575.484 125.097C575.484 123.262 573.996 121.774 572.161 121.774C570.326 121.774 568.839 123.262 568.839 125.097C568.839 126.932 570.326 128.419 572.161 128.419Z" fill="#4B4B4B"/>
<path d="M605.387 128.419C607.222 128.419 608.71 126.932 608.71 125.097C608.71 123.262 607.222 121.774 605.387 121.774C603.552 121.774 602.065 123.262 602.065 125.097C602.065 126.932 603.552 128.419 605.387 128.419Z" fill="#4B4B4B"/>
<path d="M602.065 145.032H595.419C595.419 148.697 592.439 151.677 588.774 151.677C585.109 151.677 582.129 148.697 582.129 145.032H575.484C575.484 152.362 581.445 158.323 588.774 158.323C596.104 158.323 602.065 152.362 602.065 145.032Z" fill="#4B4B4B"/>
<path d="M685.129 204.839C692.459 204.839 698.419 198.878 698.419 191.548C698.419 184.219 692.459 178.258 685.129 178.258C677.799 178.258 671.839 184.219 671.839 191.548C671.839 198.878 677.799 204.839 685.129 204.839ZM685.129 184.903C688.794 184.903 691.774 187.884 691.774 191.548C691.774 193.997 690.429 196.117 688.452 197.27V191.548H681.806V197.27C679.83 196.117 678.484 193.997 678.484 191.548C678.484 187.884 681.464 184.903 685.129 184.903Z" fill="#4B4B4B"/>
<circle cx="86" cy="322" r="45" fill="#FFED49"/>
<path d="M91.3691 271.546C91.3691 270.782 90.6541 270.186 90.0898 270.186C89.9582 270.186 89.8264 270.204 89.7323 270.279L84.9536 273.353C84.5209 273.633 84.3704 274.08 84.3704 274.397C84.3704 274.713 84.5209 275.161 84.9536 275.44L89.7323 278.515C89.8264 278.589 89.958 278.608 90.0898 278.608C90.6541 278.608 91.3691 278.011 91.3691 277.247C91.3691 276.931 91.2375 276.651 91.0305 276.521L87.7191 274.397L91.0305 272.272C91.2373 272.142 91.3691 271.863 91.3691 271.546Z" fill="#4B4B4B"/>
<path d="M100.833 265.174C100.494 265.174 100.193 265.322 100.043 265.639L93.439 279.073C93.3825 279.185 93.3448 279.315 93.3448 279.427C93.3448 279.893 93.7587 280.415 94.3986 280.415C94.7561 280.415 95.1136 280.228 95.2452 279.949L101.868 266.515C101.924 266.403 101.943 266.273 101.943 266.161C101.943 265.565 101.359 265.174 100.833 265.174Z" fill="#4B4B4B"/>
<path d="M110.334 273.353L105.556 270.279C105.461 270.204 105.33 270.186 105.198 270.186C104.634 270.186 103.919 270.782 103.919 271.546C103.919 271.863 104.05 272.142 104.257 272.272L107.568 274.397L104.257 276.521C104.05 276.651 103.919 276.931 103.919 277.247C103.919 278.011 104.634 278.608 105.198 278.608C105.33 278.608 105.461 278.589 105.556 278.515L110.334 275.44C110.767 275.161 110.917 274.714 110.917 274.397C110.917 274.08 110.767 273.633 110.334 273.353Z" fill="#4B4B4B"/>
<path d="M112.677 255.502H79.8753C78.1806 251.12 73.889 248 68.8753 248H46.8744C40.3825 248 35.1009 253.231 35.1009 259.66V272.9C33.7887 274.02 33.1779 275.772 33.5013 277.535L34.366 282.249C34.6767 283.867 35.5447 284.699 36.2181 285.112C36.9708 285.574 37.8063 285.726 38.5733 285.73L38.5735 286.567C38.5735 290.817 41.077 295.501 45.4422 299.418C46.264 300.155 47.1186 300.835 47.9896 301.45V303.977C47.9896 304.747 47.4346 305.408 46.6701 305.548C46.6347 305.555 46.5994 305.563 46.5646 305.572C46.538 305.578 43.9228 306.254 40.5044 307.214H29.3329C28.0768 307.214 26.8656 307.736 26.0094 308.646C25.1534 309.557 24.7137 310.791 24.803 312.031L24.8337 312.458C19.8366 314.939 16.6933 319.388 16.3937 324.445C16.3924 324.466 16.3916 324.488 16.3912 324.509L16.0439 345.278C16.0254 346.801 16.6104 348.236 17.691 349.32C18.7721 350.403 20.2142 351 21.7523 351H93.9976C95.5354 351 96.9776 350.403 98.0584 349.32C99.1393 348.236 99.7243 346.801 99.7056 345.271L99.3584 324.509C99.358 324.488 99.3572 324.466 99.356 324.445C99.0479 319.242 95.7294 314.683 90.4788 312.248C90.3822 312.203 90.2816 312.158 90.1776 312.111L90.1833 312.032C90.2725 310.791 89.8327 309.557 88.9769 308.646C88.1208 307.736 86.9093 307.214 85.6534 307.214H75.2455C71.8273 306.254 69.2116 305.579 69.1852 305.572C69.1503 305.563 69.1152 305.555 69.0798 305.549C68.3151 305.408 67.7603 304.747 67.7603 303.977V301.45C68.6313 300.835 69.4859 300.156 70.3077 299.418C73.082 296.929 75.1043 294.13 76.2099 291.329H86.1078L84.379 298.24C84.0908 299.393 84.5527 300.558 85.5561 301.208C86.0271 301.513 86.5555 301.665 87.0818 301.665C87.6767 301.665 88.269 301.471 88.7734 301.088L101.6 291.329H112.677C116.691 291.329 119.956 288.095 119.956 284.12V262.711C119.957 258.736 116.691 255.502 112.677 255.502ZM77.1794 275.507C77.7616 275.31 78.3131 275.23 78.6728 275.197C79.1508 275.618 79.3766 276.311 79.2511 276.996L78.3911 281.685C78.2655 282.34 78.0116 282.495 77.9282 282.546C77.7512 282.655 77.4904 282.711 77.1778 282.714L77.1794 275.507ZM38.1477 259.66C38.1477 254.895 42.0626 251.018 46.8744 251.018H68.8755C73.6873 251.018 77.6023 254.895 77.6023 259.66V272.302C76.8481 272.434 75.9095 272.687 74.9932 273.171V263.977C74.9932 260.671 72.2774 257.982 68.9391 257.982H64.8221C63.395 257.982 62.0005 258.474 60.8953 259.369L60.4919 259.696C59.7556 260.292 58.8261 260.62 57.8746 260.62C56.9234 260.62 55.9939 260.292 55.2578 259.696L54.8538 259.369C53.749 258.474 52.3545 257.981 50.9273 257.981H46.8106C43.4723 257.981 40.7565 260.671 40.7565 263.977V273.17C39.8402 272.686 38.9015 272.433 38.1473 272.301V259.66H38.1477ZM37.8217 282.547C37.7382 282.496 37.4845 282.34 37.361 281.697L36.4988 276.996C36.3732 276.311 36.5985 275.619 37.0759 275.199C37.4354 275.231 37.9873 275.31 38.5702 275.507L38.5723 282.714C38.2599 282.711 37.9989 282.655 37.8217 282.547ZM24.3424 346.89C24.3424 347.268 24.3944 347.634 24.4912 347.982H21.7523C21.0351 347.982 20.3627 347.704 19.8588 347.199C19.3548 346.694 19.082 346.024 19.0906 345.321L19.4373 324.591C19.6621 320.968 21.6895 317.828 25.0724 315.774L26.9324 341.619C26.9665 342.093 27.0754 342.547 27.2468 342.969C25.5652 343.494 24.3424 345.053 24.3424 346.89ZM88.0539 341.619L89.944 315.357C93.7662 317.388 96.0719 320.714 96.3126 324.591L96.6591 345.314C96.6677 346.024 96.3949 346.694 95.8911 347.199C95.3871 347.704 94.7146 347.982 93.9976 347.982H91.2586C91.3557 347.634 91.4075 347.268 91.4075 346.89C91.4075 344.805 89.8323 343.078 87.7988 342.815C87.9363 342.437 88.0241 342.036 88.0539 341.619ZM88.3606 346.89C88.3606 347.492 87.8656 347.982 87.2575 347.982H28.4924C27.884 347.982 27.3892 347.492 27.3892 346.89C27.3892 346.287 27.8842 345.797 28.4924 345.797H87.2577C87.8658 345.797 88.3606 346.287 88.3606 346.89ZM86.7472 310.703C87.033 311.007 87.1742 311.403 87.1441 311.817L85.0148 341.405C84.9595 342.176 84.3046 342.78 83.524 342.78H31.4623C30.6817 342.78 30.027 342.176 29.9714 341.405L27.842 311.817C27.8121 311.403 27.9531 311.007 28.2391 310.703C28.5251 310.399 28.9135 310.232 29.3329 310.232H85.6536C86.0727 310.232 86.4614 310.399 86.7472 310.703ZM66.0518 307.214H49.6978C50.5313 306.374 51.0362 305.225 51.0362 303.977V303.302C53.4386 304.533 55.8253 305.224 57.8748 305.224C59.9244 305.224 62.3111 304.533 64.7134 303.302V303.977C64.7134 305.225 65.2184 306.374 66.0518 307.214ZM68.262 297.182C64.8603 300.234 60.7832 302.207 57.8748 302.207C54.9667 302.207 50.8894 300.234 47.4878 297.182C43.7589 293.836 41.6202 289.967 41.6202 286.567L41.6175 277.061C41.6372 277.062 41.6569 277.062 41.6766 277.062C41.9521 277.062 42.2301 277.009 42.4956 276.899C43.2903 276.57 43.8036 275.808 43.8036 274.956V263.977C43.8036 262.335 45.1525 260.999 46.8108 260.999H50.9276C51.6537 260.999 52.3632 261.25 52.9251 261.705L53.3293 262.032C54.6084 263.068 56.2226 263.638 57.8746 263.638C59.5266 263.638 61.1411 263.068 62.4206 262.032L62.824 261.705C63.3862 261.25 64.0957 260.999 64.8219 260.999H68.9389C70.597 260.999 71.9461 262.335 71.9461 263.977V274.956C71.9461 275.808 72.4594 276.571 73.254 276.899C73.5384 277.017 73.8374 277.07 74.1319 277.061L74.1295 286.567C74.1297 289.967 71.9908 293.836 68.262 297.182ZM116.91 284.12C116.91 286.431 115.011 288.312 112.677 288.312H101.083C100.747 288.312 100.421 288.421 100.155 288.624L87.5191 298.237L89.5337 290.183C89.6464 289.733 89.5434 289.256 89.2546 288.891C88.966 288.525 88.5234 288.312 88.0549 288.312H77.0409C77.1307 287.724 77.1766 287.142 77.1766 286.568L77.1768 285.73C77.9438 285.726 78.7792 285.574 79.5322 285.112C80.2054 284.699 81.0735 283.868 81.3866 282.237L82.2488 277.535C82.5722 275.772 81.961 274.02 80.6492 272.9V259.66C80.6492 259.275 80.6303 258.895 80.5932 258.519H112.677C115.011 258.519 116.91 260.4 116.91 262.711V284.12Z" fill="#4B4B4B"/>
<path d="M57.8748 333.371C61.0328 333.371 63.6019 330.826 63.6019 327.699C63.6019 324.571 61.0328 322.027 57.8748 322.027C54.7168 322.027 52.1477 324.571 52.1477 327.699C52.1477 330.826 54.7168 333.371 57.8748 333.371ZM57.8748 325.044C59.3527 325.044 60.555 326.235 60.555 327.699C60.555 329.163 59.3527 330.353 57.8748 330.353C56.3968 330.353 55.1946 329.163 55.1946 327.699C55.1946 326.235 56.3968 325.044 57.8748 325.044Z" fill="#4B4B4B"/>
<path d="M43.1591 390.32C43.1591 391.429 42.9191 392.416 42.4391 393.28C41.9697 394.133 41.2871 394.8 40.3911 395.28C39.5057 395.76 38.4604 396 37.2551 396H32.9831V384.688H37.2551C38.4711 384.688 39.5217 384.923 40.4071 385.392C41.2924 385.861 41.9697 386.523 42.4391 387.376C42.9191 388.229 43.1591 389.211 43.1591 390.32ZM37.0151 393.552C38.0817 393.552 38.9084 393.269 39.4951 392.704C40.0924 392.139 40.3911 391.344 40.3911 390.32C40.3911 389.296 40.0924 388.501 39.4951 387.936C38.9084 387.371 38.0817 387.088 37.0151 387.088H35.7191V393.552H37.0151ZM53.1974 391.296C53.1974 391.52 53.1708 391.765 53.1174 392.032H46.9254C46.9574 392.704 47.1281 393.189 47.4374 393.488C47.7468 393.776 48.1414 393.92 48.6214 393.92C49.0268 393.92 49.3628 393.819 49.6294 393.616C49.8961 393.413 50.0721 393.152 50.1574 392.832H53.0534C52.9361 393.461 52.6801 394.027 52.2854 394.528C51.8908 395.019 51.3894 395.408 50.7814 395.696C50.1734 395.973 49.4961 396.112 48.7494 396.112C47.8748 396.112 47.0961 395.931 46.4134 395.568C45.7414 395.195 45.2134 394.661 44.8294 393.968C44.4454 393.275 44.2534 392.464 44.2534 391.536C44.2534 390.597 44.4401 389.787 44.8134 389.104C45.1974 388.411 45.7308 387.883 46.4134 387.52C47.0961 387.147 47.8748 386.96 48.7494 386.96C49.6348 386.96 50.4134 387.141 51.0854 387.504C51.7574 387.867 52.2748 388.379 52.6374 389.04C53.0108 389.691 53.1974 390.443 53.1974 391.296ZM50.4294 390.88C50.4401 390.293 50.2801 389.856 49.9494 389.568C49.6294 389.269 49.2294 389.12 48.7494 389.12C48.2481 389.12 47.8321 389.269 47.5014 389.568C47.1708 389.867 46.9841 390.304 46.9414 390.88H50.4294ZM58.7517 393.328L60.6877 387.072H63.5997L60.4317 396H57.0397L53.8717 387.072H56.7837L58.7517 393.328ZM73.2131 391.296C73.2131 391.52 73.1864 391.765 73.1331 392.032H66.9411C66.9731 392.704 67.1437 393.189 67.4531 393.488C67.7624 393.776 68.1571 393.92 68.6371 393.92C69.0424 393.92 69.3784 393.819 69.6451 393.616C69.9117 393.413 70.0877 393.152 70.1731 392.832H73.0691C72.9517 393.461 72.6957 394.027 72.3011 394.528C71.9064 395.019 71.4051 395.408 70.7971 395.696C70.1891 395.973 69.5117 396.112 68.7651 396.112C67.8904 396.112 67.1117 395.931 66.4291 395.568C65.7571 395.195 65.2291 394.661 64.8451 393.968C64.4611 393.275 64.2691 392.464 64.2691 391.536C64.2691 390.597 64.4557 389.787 64.8291 389.104C65.2131 388.411 65.7464 387.883 66.4291 387.52C67.1117 387.147 67.8904 386.96 68.7651 386.96C69.6504 386.96 70.4291 387.141 71.1011 387.504C71.7731 387.867 72.2904 388.379 72.6531 389.04C73.0264 389.691 73.2131 390.443 73.2131 391.296ZM70.4451 390.88C70.4557 390.293 70.2957 389.856 69.9651 389.568C69.6451 389.269 69.2451 389.12 68.7651 389.12C68.2637 389.12 67.8477 389.269 67.5171 389.568C67.1864 389.867 66.9997 390.304 66.9571 390.88H70.4451ZM77.3753 384.16V396H74.6393V384.16H77.3753ZM83.4403 386.96C84.3256 386.96 85.115 387.147 85.8083 387.52C86.5123 387.883 87.0616 388.411 87.4563 389.104C87.8616 389.797 88.0643 390.608 88.0643 391.536C88.0643 392.464 87.8616 393.275 87.4563 393.968C87.0616 394.661 86.5123 395.195 85.8083 395.568C85.115 395.931 84.3256 396.112 83.4403 396.112C82.555 396.112 81.7603 395.931 81.0563 395.568C80.3523 395.195 79.7976 394.661 79.3923 393.968C78.9976 393.275 78.8003 392.464 78.8003 391.536C78.8003 390.608 78.9976 389.797 79.3923 389.104C79.7976 388.411 80.3523 387.883 81.0563 387.52C81.7603 387.147 82.555 386.96 83.4403 386.96ZM83.4403 389.328C82.9176 389.328 82.475 389.52 82.1123 389.904C81.7603 390.277 81.5843 390.821 81.5843 391.536C81.5843 392.251 81.7603 392.795 82.1123 393.168C82.475 393.541 82.9176 393.728 83.4403 393.728C83.963 393.728 84.4003 393.541 84.7523 393.168C85.1043 392.795 85.2803 392.251 85.2803 391.536C85.2803 390.821 85.1043 390.277 84.7523 389.904C84.4003 389.52 83.963 389.328 83.4403 389.328ZM95.0511 386.96C95.7871 386.96 96.4431 387.147 97.0191 387.52C97.6057 387.883 98.0644 388.411 98.3951 389.104C98.7364 389.787 98.9071 390.597 98.9071 391.536C98.9071 392.464 98.7364 393.275 98.3951 393.968C98.0644 394.661 97.6057 395.195 97.0191 395.568C96.4431 395.931 95.7871 396.112 95.0511 396.112C94.3684 396.112 93.7817 395.957 93.2911 395.648C92.8004 395.339 92.4431 394.917 92.2191 394.384V400.256H89.4831V387.072H92.2191V388.688C92.4431 388.155 92.8004 387.733 93.2911 387.424C93.7817 387.115 94.3684 386.96 95.0511 386.96ZM94.1711 389.36C93.5951 389.36 93.1204 389.557 92.7471 389.952C92.3844 390.336 92.2031 390.864 92.2031 391.536C92.2031 392.197 92.3844 392.725 92.7471 393.12C93.1204 393.515 93.5951 393.712 94.1711 393.712C94.7577 393.712 95.2271 393.52 95.5791 393.136C95.9417 392.752 96.1231 392.219 96.1231 391.536C96.1231 390.853 95.9417 390.32 95.5791 389.936C95.2271 389.552 94.7577 389.36 94.1711 389.36ZM110.538 393.936H106.298L105.594 396H102.714L106.858 384.768H110.01L114.154 396H111.242L110.538 393.936ZM109.834 391.856L108.426 387.696L107.002 391.856H109.834ZM120.785 386.96C121.521 386.96 122.177 387.147 122.753 387.52C123.34 387.883 123.799 388.411 124.129 389.104C124.471 389.787 124.641 390.597 124.641 391.536C124.641 392.464 124.471 393.275 124.129 393.968C123.799 394.661 123.34 395.195 122.753 395.568C122.177 395.931 121.521 396.112 120.785 396.112C120.103 396.112 119.516 395.957 119.025 395.648C118.535 395.339 118.177 394.917 117.953 394.384V400.256H115.217V387.072H117.953V388.688C118.177 388.155 118.535 387.733 119.025 387.424C119.516 387.115 120.103 386.96 120.785 386.96ZM119.905 389.36C119.329 389.36 118.855 389.557 118.481 389.952C118.119 390.336 117.937 390.864 117.937 391.536C117.937 392.197 118.119 392.725 118.481 393.12C118.855 393.515 119.329 393.712 119.905 393.712C120.492 393.712 120.961 393.52 121.313 393.136C121.676 392.752 121.857 392.219 121.857 391.536C121.857 390.853 121.676 390.32 121.313 389.936C120.961 389.552 120.492 389.36 119.905 389.36ZM131.629 386.96C132.365 386.96 133.021 387.147 133.597 387.52C134.184 387.883 134.643 388.411 134.973 389.104C135.315 389.787 135.485 390.597 135.485 391.536C135.485 392.464 135.315 393.275 134.973 393.968C134.643 394.661 134.184 395.195 133.597 395.568C133.021 395.931 132.365 396.112 131.629 396.112C130.947 396.112 130.36 395.957 129.869 395.648C129.379 395.339 129.021 394.917 128.797 394.384V400.256H126.061V387.072H128.797V388.688C129.021 388.155 129.379 387.733 129.869 387.424C130.36 387.115 130.947 386.96 131.629 386.96ZM130.749 389.36C130.173 389.36 129.699 389.557 129.325 389.952C128.963 390.336 128.781 390.864 128.781 391.536C128.781 392.197 128.963 392.725 129.325 393.12C129.699 393.515 130.173 393.712 130.749 393.712C131.336 393.712 131.805 393.52 132.157 393.136C132.52 392.752 132.701 392.219 132.701 391.536C132.701 390.853 132.52 390.32 132.157 389.936C131.805 389.552 131.336 389.36 130.749 389.36Z" fill="black"/>
<circle cx="148" cy="74" r="45" fill="#FFED49"/>
<path d="M171.16 69.708L150.968 65.2229V62.0113C154.038 60.003 156.444 57.071 157.8 53.6113H162.258C165.816 53.6113 168.71 50.7178 168.71 47.1597V35.8693C168.71 33.4917 167.403 31.4338 165.484 30.3147V23.2614C165.484 19.7482 163.384 16.6177 160.194 15.2646L159.81 14.4952C155.966 6.80793 148.239 2.03223 139.644 2.03223C127.211 2.0338 117.097 12.1483 117.097 24.5806V30.3163C115.178 31.4354 113.871 33.4933 113.871 35.8709V47.1612C113.871 50.7194 116.764 53.6128 120.323 53.6128H124.781C126.137 57.0725 128.542 60.0046 131.613 62.0129V65.2245L111.421 69.7096C106.216 70.8657 102.581 75.3996 102.581 80.7306V102H180V80.7306C180 75.3996 176.365 70.8657 171.16 69.708V69.708ZM152.355 68.8354L149.958 78.4207L143.821 74.3309L149.869 68.2825L152.355 68.8354ZM139.387 85.8709H143.195L145.775 98.7741H136.807L139.387 85.8709ZM143.257 82.6451H139.324L138.291 78.5175L141.29 76.5195L144.289 78.5191L143.257 82.6451ZM165.484 47.1612C165.484 48.9403 164.037 50.387 162.258 50.387H158.724C158.918 49.3388 159.032 48.2646 159.032 47.1612V32.6451H162.258C164.037 32.6451 165.484 34.0918 165.484 35.8709V47.1612ZM120.323 24.5806C120.323 13.9274 128.99 5.25961 139.644 5.25961C147.008 5.25961 153.63 9.35172 156.924 15.9404L157.89 17.8691L158.524 18.0809C160.756 18.826 162.258 20.9082 162.258 23.2646V29.4193H159.032V24.5806H155.806V28.3868C154.605 29.0019 153.292 29.3468 151.939 29.3965C152.682 28.7192 153.352 27.9481 153.923 27.0889L151.239 25.2996C149.581 27.7867 146.843 29.2933 143.871 29.3996C144.616 28.7207 145.286 27.9481 145.858 27.0889L143.174 25.2996C141.516 27.7867 138.779 29.2933 135.807 29.3996C136.552 28.7207 137.221 27.9481 137.794 27.0889L135.11 25.2996C133.39 27.8788 130.511 29.4193 127.411 29.4193H126.774V24.5806H123.548V29.4193H120.323V24.5806ZM120.323 50.387C118.544 50.387 117.097 48.9403 117.097 47.1612V35.8709C117.097 34.0918 118.544 32.6451 120.323 32.6451H123.548V47.1612C123.548 48.2646 123.663 49.3388 123.856 50.387H120.323ZM126.774 47.1612V32.6451H127.411C129.474 32.6451 131.461 32.1356 133.226 31.2062V32.6451H135.476C137.538 32.6451 139.525 32.1356 141.29 31.2062V32.6451H143.54C145.603 32.6451 147.59 32.1356 149.355 31.2062V32.6451H151.605C153.05 32.6451 154.463 32.3663 155.806 31.8835V47.1612C155.806 48.2709 155.669 49.3483 155.432 50.387H147.443C146.776 48.5142 145.001 47.1612 142.902 47.1612H139.676C137.008 47.1612 134.837 49.3325 134.837 51.9999C134.837 54.6674 137.008 56.8386 139.676 56.8386H142.902C145.001 56.8386 146.776 55.4856 147.443 53.6128H154.274C151.894 58.3838 146.974 61.6774 141.29 61.6774C133.286 61.6774 126.774 55.1659 126.774 47.1612V47.1612ZM144.516 51.9999C144.516 52.8883 143.793 53.6128 142.903 53.6128H139.677C138.788 53.6128 138.065 52.8883 138.065 51.9999C138.065 51.1116 138.788 50.387 139.677 50.387H142.903C143.793 50.387 144.516 51.1116 144.516 51.9999ZM141.29 64.9032C143.568 64.9032 145.738 64.4566 147.742 63.6706V65.8482L141.29 72.2998L134.839 65.8482V63.6706C136.842 64.4566 139.013 64.9032 141.29 64.9032V64.9032ZM132.712 68.2825L138.76 74.3309L132.623 78.4207L130.226 68.8354L132.712 68.2825ZM105.806 80.7306C105.806 76.9228 108.403 73.6836 112.121 72.8582L127.077 69.534L130.603 83.6437L135.442 80.4179L136.411 84.2982L133.516 98.7741H118.71V81.0322H115.484V98.7741H105.806V80.7306ZM176.774 98.7741H167.097V81.0322H163.871V98.7741H149.064L146.169 84.2982L147.139 80.4179L151.977 83.6437L155.503 69.534L170.46 72.8582C174.178 73.6836 176.774 76.9228 176.774 80.7306V98.7741Z" fill="#4B4B4B"/>
<path d="M152.581 37.4839C152.581 38.3746 151.858 39.0968 150.968 39.0968C150.077 39.0968 149.355 38.3746 149.355 37.4839C149.355 36.5932 150.077 35.871 150.968 35.871C151.858 35.871 152.581 36.5932 152.581 37.4839Z" fill="#4B4B4B"/>
<path d="M133.226 37.4839C133.226 38.3746 132.504 39.0968 131.613 39.0968C130.722 39.0968 130 38.3746 130 37.4839C130 36.5932 130.722 35.871 131.613 35.871C132.504 35.871 133.226 36.5932 133.226 37.4839Z" fill="#4B4B4B"/>
<path d="M86.4517 8.45166H102.581V11.6775H86.4517V8.45166Z" fill="#4B4B4B"/>
<path d="M86.4517 14.9032H102.581V18.129H86.4517V14.9032Z" fill="#4B4B4B"/>
<path d="M104.194 30.5243V24.5806H109.032V2H80V24.5806H93.3049L104.194 30.5243ZM83.2258 5.22581H105.806V21.3548H100.968V25.0886L94.1271 21.3548H83.2258V5.22581Z" fill="#4B4B4B"/>
<path d="M113.871 61.6774H87.8519L89.6774 58.9406V32.6451C89.6774 29.9777 87.5061 27.8064 84.8387 27.8064C82.1713 27.8064 80 29.9777 80 32.6451V58.9406L83.9756 64.9032H113.871V61.6774ZM84.8387 31.0322C85.7286 31.0322 86.4516 31.7567 86.4516 32.6451V35.8709H83.2258V32.6451C83.2258 31.7567 83.9488 31.0322 84.8387 31.0322ZM84.8387 60.3818L83.2258 57.9625V39.0967H86.4516V57.9625L84.8387 60.3818Z" fill="#4B4B4B"/>
<path d="M110.645 55.2258H113.871V58.4516H110.645V55.2258Z" fill="#4B4B4B"/>
<path d="M92.9032 55.2258H107.419V58.4516H92.9032V55.2258Z" fill="#4B4B4B"/>
<path d="M92.9032 48.7742H107.419V52H92.9032V48.7742Z" fill="#4B4B4B"/>
<path d="M104.193 42.3226H107.419V45.5484H104.193V42.3226Z" fill="#4B4B4B"/>
<path d="M92.9032 42.3226H100.968V45.5484H92.9032V42.3226Z" fill="#4B4B4B"/>
<path d="M93.5651 134.576C95.0051 134.576 96.1945 134.955 97.1331 135.712C98.0825 136.469 98.6958 137.493 98.9731 138.784H96.0771C95.8638 138.261 95.5331 137.851 95.0851 137.552C94.6478 137.253 94.1251 137.104 93.5171 137.104C92.7171 137.104 92.0718 137.397 91.5811 137.984C91.0905 138.571 90.8451 139.355 90.8451 140.336C90.8451 141.317 91.0905 142.101 91.5811 142.688C92.0718 143.264 92.7171 143.552 93.5171 143.552C94.1251 143.552 94.6478 143.403 95.0851 143.104C95.5331 142.805 95.8638 142.4 96.0771 141.888H98.9731C98.6958 143.168 98.0825 144.192 97.1331 144.96C96.1945 145.717 95.0051 146.096 93.5651 146.096C92.4665 146.096 91.5011 145.856 90.6691 145.376C89.8371 144.885 89.1918 144.203 88.7331 143.328C88.2851 142.453 88.0611 141.456 88.0611 140.336C88.0611 139.216 88.2851 138.219 88.7331 137.344C89.1918 136.469 89.8371 135.792 90.6691 135.312C91.5011 134.821 92.4665 134.576 93.5651 134.576ZM104.683 136.96C105.568 136.96 106.357 137.147 107.051 137.52C107.755 137.883 108.304 138.411 108.699 139.104C109.104 139.797 109.307 140.608 109.307 141.536C109.307 142.464 109.104 143.275 108.699 143.968C108.304 144.661 107.755 145.195 107.051 145.568C106.357 145.931 105.568 146.112 104.683 146.112C103.797 146.112 103.003 145.931 102.299 145.568C101.595 145.195 101.04 144.661 100.635 143.968C100.24 143.275 100.043 142.464 100.043 141.536C100.043 140.608 100.24 139.797 100.635 139.104C101.04 138.411 101.595 137.883 102.299 137.52C103.003 137.147 103.797 136.96 104.683 136.96ZM104.683 139.328C104.16 139.328 103.717 139.52 103.355 139.904C103.003 140.277 102.827 140.821 102.827 141.536C102.827 142.251 103.003 142.795 103.355 143.168C103.717 143.541 104.16 143.728 104.683 143.728C105.205 143.728 105.643 143.541 105.995 143.168C106.347 142.795 106.523 142.251 106.523 141.536C106.523 140.821 106.347 140.277 105.995 139.904C105.643 139.52 105.205 139.328 104.683 139.328ZM116.389 136.976C117.413 136.976 118.224 137.317 118.821 138C119.429 138.683 119.733 139.621 119.733 140.816V146H116.997V141.136C116.997 140.539 116.837 140.075 116.517 139.744C116.208 139.403 115.792 139.232 115.269 139.232C114.715 139.232 114.272 139.408 113.941 139.76C113.621 140.112 113.461 140.613 113.461 141.264V146H110.725V137.072H113.461V138.704C113.717 138.171 114.096 137.749 114.597 137.44C115.109 137.131 115.707 136.976 116.389 136.976ZM124.786 136.96C125.916 136.96 126.818 137.243 127.49 137.808C128.172 138.373 128.599 139.12 128.77 140.048H126.21C126.135 139.685 125.964 139.403 125.698 139.2C125.442 138.987 125.116 138.88 124.722 138.88C124.412 138.88 124.178 138.949 124.018 139.088C123.858 139.216 123.778 139.403 123.778 139.648C123.778 139.925 123.922 140.133 124.21 140.272C124.508 140.411 124.972 140.549 125.602 140.688C126.284 140.848 126.844 141.013 127.282 141.184C127.719 141.344 128.098 141.611 128.418 141.984C128.738 142.357 128.898 142.859 128.898 143.488C128.898 144 128.759 144.453 128.482 144.848C128.204 145.243 127.804 145.552 127.282 145.776C126.759 146 126.14 146.112 125.426 146.112C124.22 146.112 123.255 145.845 122.53 145.312C121.804 144.779 121.362 144.016 121.202 143.024H123.842C123.884 143.408 124.044 143.701 124.322 143.904C124.61 144.107 124.978 144.208 125.426 144.208C125.735 144.208 125.97 144.139 126.13 144C126.29 143.851 126.37 143.659 126.37 143.424C126.37 143.115 126.22 142.896 125.922 142.768C125.634 142.629 125.159 142.485 124.498 142.336C123.836 142.197 123.292 142.048 122.866 141.888C122.439 141.728 122.071 141.472 121.762 141.12C121.452 140.757 121.298 140.267 121.298 139.648C121.298 138.848 121.602 138.203 122.21 137.712C122.818 137.211 123.676 136.96 124.786 136.96ZM139.293 137.072V146H136.541V144.384C136.285 144.907 135.901 145.323 135.389 145.632C134.887 145.941 134.301 146.096 133.629 146.096C132.605 146.096 131.789 145.755 131.181 145.072C130.583 144.389 130.285 143.451 130.285 142.256V137.072H133.005V141.92C133.005 142.528 133.159 143.003 133.469 143.344C133.789 143.675 134.215 143.84 134.749 143.84C135.303 143.84 135.741 143.664 136.061 143.312C136.381 142.96 136.541 142.459 136.541 141.808V137.072H139.293ZM143.914 134.16V146H141.178V134.16H143.914ZM150.859 143.648V146H149.627C148.582 146 147.766 145.744 147.179 145.232C146.603 144.709 146.315 143.851 146.315 142.656V139.376H145.115V137.072H146.315V134.88H149.051V137.072H150.843V139.376H149.051V142.704C149.051 143.056 149.121 143.301 149.259 143.44C149.409 143.579 149.654 143.648 149.995 143.648H150.859ZM155.789 136.96C156.472 136.96 157.058 137.115 157.549 137.424C158.04 137.733 158.402 138.155 158.637 138.688V137.072H161.357V146H158.637V144.384C158.402 144.917 158.04 145.339 157.549 145.648C157.058 145.957 156.472 146.112 155.789 146.112C155.053 146.112 154.392 145.931 153.805 145.568C153.229 145.195 152.77 144.661 152.429 143.968C152.098 143.275 151.933 142.464 151.933 141.536C151.933 140.597 152.098 139.787 152.429 139.104C152.77 138.411 153.229 137.883 153.805 137.52C154.392 137.147 155.053 136.96 155.789 136.96ZM156.669 139.36C156.082 139.36 155.608 139.552 155.245 139.936C154.893 140.32 154.717 140.853 154.717 141.536C154.717 142.219 154.893 142.752 155.245 143.136C155.608 143.52 156.082 143.712 156.669 143.712C157.245 143.712 157.714 143.515 158.077 143.12C158.45 142.725 158.637 142.197 158.637 141.536C158.637 140.864 158.45 140.336 158.077 139.952C157.714 139.557 157.245 139.36 156.669 139.36ZM168.297 143.648V146H167.065C166.02 146 165.204 145.744 164.617 145.232C164.041 144.709 163.753 143.851 163.753 142.656V139.376H162.553V137.072H163.753V134.88H166.489V137.072H168.281V139.376H166.489V142.704C166.489 143.056 166.558 143.301 166.697 143.44C166.846 143.579 167.092 143.648 167.433 143.648H168.297ZM169.579 134.56C169.579 134.144 169.728 133.803 170.027 133.536C170.325 133.259 170.72 133.12 171.211 133.12C171.701 133.12 172.096 133.259 172.395 133.536C172.693 133.803 172.843 134.144 172.843 134.56C172.843 134.965 172.693 135.307 172.395 135.584C172.096 135.851 171.701 135.984 171.211 135.984C170.72 135.984 170.325 135.851 170.027 135.584C169.728 135.307 169.579 134.965 169.579 134.56ZM172.571 137.072V146H169.835V137.072H172.571ZM178.636 136.96C179.521 136.96 180.31 137.147 181.004 137.52C181.708 137.883 182.257 138.411 182.652 139.104C183.057 139.797 183.26 140.608 183.26 141.536C183.26 142.464 183.057 143.275 182.652 143.968C182.257 144.661 181.708 145.195 181.004 145.568C180.31 145.931 179.521 146.112 178.636 146.112C177.75 146.112 176.956 145.931 176.252 145.568C175.548 145.195 174.993 144.661 174.588 143.968C174.193 143.275 173.996 142.464 173.996 141.536C173.996 140.608 174.193 139.797 174.588 139.104C174.993 138.411 175.548 137.883 176.252 137.52C176.956 137.147 177.75 136.96 178.636 136.96ZM178.636 139.328C178.113 139.328 177.67 139.52 177.308 139.904C176.956 140.277 176.78 140.821 176.78 141.536C176.78 142.251 176.956 142.795 177.308 143.168C177.67 143.541 178.113 143.728 178.636 143.728C179.158 143.728 179.596 143.541 179.948 143.168C180.3 142.795 180.476 142.251 180.476 141.536C180.476 140.821 180.3 140.277 179.948 139.904C179.596 139.52 179.158 139.328 178.636 139.328ZM190.342 136.976C191.366 136.976 192.177 137.317 192.774 138C193.382 138.683 193.686 139.621 193.686 140.816V146H190.95V141.136C190.95 140.539 190.79 140.075 190.47 139.744C190.161 139.403 189.745 139.232 189.222 139.232C188.668 139.232 188.225 139.408 187.894 139.76C187.574 140.112 187.414 140.613 187.414 141.264V146H184.678V137.072H187.414V138.704C187.67 138.171 188.049 137.749 188.55 137.44C189.062 137.131 189.66 136.976 190.342 136.976Z" fill="black"/>
<path d="M25.041 211.001C25.7483 212.334 26.9627 213.365 28.4685 213.827L47.6592 219.731C49.8861 220.416 52.2458 220.192 54.3037 219.099C56.3615 218.007 57.8699 216.178 58.5503 213.95L64.4139 194.747C65.1035 192.49 64.3718 190.061 62.5504 188.559C60.7313 187.059 58.2114 186.803 56.131 187.908L44.3513 194.16C33.549 173.81 41.3173 148.465 61.668 137.663L65.7683 135.486C67.184 134.735 67.7223 132.979 66.9709 131.563C66.2194 130.147 64.4631 129.609 63.0474 130.36L58.9471 132.537C47.7196 138.497 39.4845 148.472 35.7595 160.625C32.0349 172.778 33.2651 185.654 39.2248 196.882C40.7253 199.708 44.2457 200.787 47.0719 199.287L58.8522 193.034C58.8527 193.034 58.8532 193.033 58.8537 193.033C58.8578 193.036 58.8624 193.04 58.8663 193.044C58.8651 193.046 58.8647 193.049 58.8638 193.052L52.9997 212.255C52.7727 212.999 52.2696 213.609 51.5828 213.974C50.896 214.338 50.1085 214.413 49.3655 214.184L30.1749 208.281L30.1664 208.278C30.1655 208.273 30.1644 208.267 30.1643 208.262C30.1648 208.262 30.1653 208.261 30.1663 208.261L32.9755 206.77C34.3912 206.018 34.9292 204.261 34.1778 202.846C33.4266 201.431 31.67 200.892 30.2544 201.643L27.4451 203.135C25.3647 204.239 24.1643 206.469 24.3875 208.817C24.4615 209.598 24.6884 210.337 25.041 211.001Z" fill="#16ABBC"/>
<path d="M261.816 350.689C262.839 349.579 263.408 348.092 263.345 346.518L262.548 326.456C262.455 324.127 261.461 321.976 259.748 320.397C258.034 318.818 255.808 318.002 253.481 318.099L233.42 318.938C231.062 319.037 229.014 320.533 228.201 322.749C227.389 324.963 227.984 327.425 229.716 329.021L239.523 338.059C223.909 355.001 197.422 356.081 180.48 340.467L177.067 337.321C175.888 336.235 174.053 336.31 172.966 337.488C171.88 338.667 171.955 340.502 173.134 341.588L176.547 344.734C185.894 353.349 198.037 357.808 210.738 357.29C223.438 356.772 235.177 351.34 243.791 341.993C245.96 339.639 245.81 335.96 243.457 333.792L233.649 324.753C233.649 324.753 233.648 324.753 233.648 324.752C233.649 324.747 233.652 324.742 233.654 324.737C233.657 324.737 233.659 324.737 233.663 324.736L253.724 323.898C254.5 323.865 255.243 324.137 255.815 324.664C256.387 325.191 256.718 325.909 256.749 326.686L257.547 346.748L257.547 346.757C257.542 346.76 257.537 346.763 257.533 346.765C257.532 346.764 257.532 346.764 257.531 346.763L255.192 344.608C254.014 343.521 252.178 343.597 251.092 344.775C250.006 345.953 250.08 347.789 251.259 348.875L253.598 351.031C255.33 352.627 257.832 353.019 259.972 352.03C260.685 351.701 261.307 351.242 261.816 350.689Z" fill="#16ABBC"/>
<path d="M488.372 104.061C489.759 104.656 490.886 105.781 491.472 107.244L498.939 125.881C499.806 128.044 499.777 130.414 498.859 132.555C497.94 134.696 496.241 136.351 494.077 137.213L475.424 144.642C473.231 145.515 470.75 144.986 469.103 143.295C467.458 141.606 466.995 139.116 467.924 136.952L473.183 124.696C452.011 115.61 427.394 125.444 418.308 146.618L416.477 150.883C415.845 152.356 414.139 153.038 412.666 152.406C411.194 151.774 410.512 150.068 411.144 148.595L412.975 144.329C417.987 132.648 427.249 123.617 439.053 118.902C450.857 114.187 463.791 114.35 475.472 119.362C478.413 120.624 479.779 124.043 478.517 126.984L473.257 139.24C473.257 139.241 473.257 139.241 473.257 139.242C473.26 139.246 473.264 139.25 473.268 139.254C473.271 139.252 473.273 139.251 473.276 139.25L491.93 131.821C492.652 131.533 493.219 130.982 493.526 130.267C493.832 129.552 493.842 128.762 493.553 128.04L486.085 109.402L486.082 109.394C486.076 109.393 486.07 109.393 486.065 109.393C486.065 109.394 486.065 109.394 486.064 109.395L484.81 112.318C484.178 113.791 482.472 114.472 480.999 113.84C479.527 113.208 478.845 111.502 479.477 110.029L480.731 107.106C481.66 104.942 483.783 103.562 486.141 103.59C486.926 103.6 487.681 103.765 488.372 104.061Z" fill="#16ABBC"/>
<path d="M826.063 328.128C827.503 327.68 828.741 326.678 829.475 325.284L838.833 307.52C839.918 305.458 840.136 303.098 839.443 300.873C838.751 298.649 837.233 296.827 835.17 295.746L817.386 286.425C815.296 285.329 812.774 285.598 810.96 287.11C809.149 288.619 808.431 291.048 809.13 293.297L813.092 306.032C791.093 312.876 767.626 300.545 760.782 278.545L759.403 274.112C758.927 272.582 757.301 271.727 755.771 272.204C754.24 272.68 753.386 274.306 753.862 275.836L755.241 280.269C759.017 292.406 767.293 302.347 778.546 308.26C789.798 314.172 802.679 315.35 814.816 311.574C817.872 310.623 819.585 307.364 818.634 304.308L814.672 291.573C814.672 291.573 814.672 291.572 814.672 291.572C814.675 291.568 814.68 291.564 814.684 291.561C814.687 291.563 814.689 291.564 814.692 291.565L832.476 300.886C833.165 301.247 833.671 301.855 833.902 302.597C834.133 303.34 834.061 304.127 833.698 304.815L824.341 322.579L824.337 322.587C824.331 322.587 824.325 322.587 824.32 322.586C824.32 322.586 824.32 322.585 824.32 322.584L823.375 319.547C822.899 318.017 821.272 317.162 819.742 317.639C818.212 318.114 817.357 319.741 817.833 321.271L818.778 324.308C819.477 326.557 821.447 328.15 823.795 328.366C824.576 328.438 825.345 328.352 826.063 328.128Z" fill="#16ABBC"/>
<path d="M979.387 69.4023C977.93 69.0118 976.348 69.1982 974.983 69.9848L957.584 80.0058C955.566 81.1687 954.121 83.0482 953.518 85.2987C952.915 87.5492 953.226 89.8995 954.393 91.9161L964.45 109.294C965.632 111.337 967.908 112.456 970.249 112.147C972.586 111.838 974.49 110.168 975.1 107.893L978.552 95.011C1000.81 100.974 1014.06 123.932 1008.1 146.187L1006.9 150.671C1006.48 152.219 1007.4 153.81 1008.95 154.224C1010.5 154.639 1012.09 153.721 1012.5 152.173L1013.7 147.689C1016.99 135.41 1015.3 122.586 1008.95 111.577C1002.59 100.569 992.332 92.6947 980.054 89.4049C976.963 88.5766 973.774 90.4176 972.946 93.5084L969.494 106.391C969.494 106.391 969.494 106.392 969.494 106.393C969.489 106.394 969.483 106.394 969.477 106.395C969.476 106.392 969.474 106.39 969.473 106.387L959.416 89.0087C959.026 88.3359 958.923 87.5518 959.124 86.8007C959.325 86.0496 959.807 85.4225 960.481 85.0344L977.879 75.0135L977.887 75.0091C977.891 75.012 977.897 75.0151 977.9 75.0185C977.9 75.0191 977.9 75.0196 977.9 75.0207L977.077 78.0929C976.662 79.641 977.581 81.232 979.129 81.6468C980.676 82.0615 982.268 81.1431 982.683 79.595L983.506 76.5228C984.115 74.2477 983.301 71.8493 981.431 70.413C980.809 69.9347 980.113 69.5969 979.387 69.4023Z" fill="#16ABBC"/>
<path d="M706.894 80.4112C706.396 81.8351 706.463 83.4265 707.146 84.8463L715.838 102.945C716.847 105.045 718.614 106.626 720.813 107.395C723.012 108.165 725.379 108.031 727.477 107.018L745.558 98.2871C747.683 97.2614 748.97 95.0752 748.836 92.7181C748.703 90.3641 747.18 88.3403 744.957 87.5624L732.369 83.1577C739.978 61.4111 763.862 49.9097 785.609 57.5194L789.99 59.0526C791.503 59.5819 793.158 58.7849 793.688 57.2721C794.217 55.7594 793.42 54.1043 791.907 53.575L787.526 52.0418C775.527 47.8435 762.613 48.5684 751.16 54.0835C739.708 59.5988 731.088 69.2431 726.89 81.2408C725.833 84.2614 727.431 87.5788 730.451 88.6356L743.04 93.0405C743.04 93.0407 743.041 93.0409 743.041 93.041C743.042 93.0461 743.042 93.0522 743.042 93.0575C743.039 93.0584 743.037 93.06 743.034 93.0614L724.953 101.792C724.253 102.13 723.463 102.175 722.729 101.918C721.995 101.661 721.406 101.134 721.069 100.433L712.377 82.3339L712.373 82.3259C712.376 82.3217 712.38 82.3169 712.383 82.3134C712.384 82.3136 712.384 82.3137 712.385 82.3141L715.387 83.3646C716.9 83.8939 718.555 83.0964 719.085 81.5836C719.614 80.0714 718.817 78.4158 717.304 77.8865L714.302 76.836C712.079 76.0581 709.626 76.6907 708.054 78.4481C707.531 79.0328 707.142 79.7013 706.894 80.4112Z" fill="#16ABBC"/>
</svg>
