<?xml version="1.0" encoding="utf-8"?>
<!-- Generator: Adobe Illustrator 22.0.1, SVG Export Plug-In . SVG Version: 6.00 Build 0)  -->
<svg version="1.1" id="Layer_2" xmlns="http://www.w3.org/2000/svg" xmlns:xlink="http://www.w3.org/1999/xlink" x="0px" y="0px"
	 viewBox="0 0 841.9 280.3" style="enable-background:new 0 0 841.9 280.3;" xml:space="preserve">
<style type="text/css">
	.st0{fill:none;}
	.st1{fill:#423939;}
	.st2{fill:#16ABBC;}
</style>
<path d="M66,79.6c-22,0-44,0.2-66,0.2v139.9h26.4h12.5v-41.2H66C134.5,178.6,134.3,79.6,66,79.6z M57.7,142.8H38.9v-30.2h18.8
	C78.2,112.6,78.3,142.8,57.7,142.8z"/>
<path d="M169.5,77.5c0,29.8-45.1,29.8-45.1,0C124.3,47.7,169.5,47.7,169.5,77.5z M124.3,107.2v112.5h45.1V107.2H124.3z"/>
<path class="st0" d="M57.7,142.8c20.6,0,20.4-30.2,0-30.2H38.9v30.2H57.7z"/>
<rect x="33.6" y="112.6" width="5.3" height="30.2"/>
<polygon class="st1" points="58.3,104.7 60.1,102.9 58.3,102.9 "/>
<path class="st2" d="M356.6,125.7c-24.2,0-39.3,17.9-39.3,39.6c0,21.9,14.8,39.6,39.4,39.6s39.6-17.7,39.6-39.6
	C396.3,143.6,380.7,125.7,356.6,125.7z"/>
<path d="M468.6,107.6V83.4h-3.4h-29.5v24.2h-17.9v4.7v23.9v5.1h17.9v43.4c0,28,16.9,41.9,42.8,41c4.5-0.1,8.4-0.5,12.4-1.3v-25.6
	v-6.6c-21.4,0-22.6-14.8-22.6-14.8v-36.1h22.6v-5.1v-23.9v-4.7H468.6z"/>
<path d="M689.1,107.6V83.4h-3.4h-29.5v24.2h-17.9v4.7v23.9v5.1h17.9v43.4c0,28,16.9,41.9,42.8,41c4.5-0.1,8.4-0.5,12.4-1.3v-25.6
	v-6.6c-21.4,0-22.6-14.8-22.6-14.8v-36.1h22.6v-5.1v-23.9v-4.7H689.1z"/>
<path d="M586.1,205.9l1.1,14.4h33.5V113h-33.9l-0.6,12.1c-5.7-11.2-18.6-18.3-32-18.3c-29.4-0.2-52.5,20.1-52.5,59
	c0,39.6,22,60.2,51.8,59.9C564.7,225.6,580.4,219.2,586.1,205.9z M540.5,165c0-15.2,10.5-24.1,23.6-24.1c8.1,0,14,3.3,17.9,8.2
	c4.1,9.1,4.6,20.2,1.6,29.8c-3.7,6.1-10.2,10.4-19.5,10.4C551.1,189.2,540.5,180.2,540.5,165z"/>
<path d="M783.9,105.6c-36.9,0-60.5,25-60.5,59.6c0,36.5,23.3,60.7,62.5,60.7c4.3,0,8.8-0.4,13.2-1.2c1.3-0.2,2.7-0.5,4-0.7
	c3.4-0.8,6.5-1.6,9.3-2.7c0.9-0.4,1.9-0.7,2.7-1.1c0.3-0.1,0.6-0.2,0.9-0.4c8.2-3.7,13.7-8.7,17.4-13.9c8.1-11.6,6.9-24,6.9-24
	h-38.5c-6.2,12.2-20.5,11.2-20.5,11.2c-15.3,0-18.6-15.8-18.9-17.1h78.8C845.8,129.1,822,105.6,783.9,105.6z M762.8,158.1
	c0.4-2,1-3.7,1.6-5.4c3.6-9.8,10.8-14.7,19.3-14.7c9,0,15.8,5,18.4,14.7c0.4,1.7,0.8,3.4,0.9,5.4H762.8z"/>
<polygon class="st2" points="204.4,55.2 247.7,68.4 247.7,140.8 287.7,79.6 327.6,91.4 260.9,193 209.1,175.1 "/>
</svg>
